<svg width="550" height="90" viewBox="0 0 550 90" fill="none" xmlns="http://www.w3.org/2000/svg">
<mask id="path-1-outside-1_3524_4122" maskUnits="userSpaceOnUse" x="0" y="19" width="404" height="39" fill="black">
<rect fill="white" y="19" width="404" height="39"/>
<path d="M11.808 56V25.376H1.44V20.672H27.792V25.376H17.424V56H11.808ZM53.5729 56.672C44.4529 56.672 38.1649 49.616 38.1649 38.192C38.1649 26.816 44.4529 20.048 53.5729 20.048C62.6449 20.048 68.9329 26.816 68.9329 38.192C68.9329 49.616 62.6449 56.672 53.5729 56.672ZM53.5729 51.776C59.4289 51.776 63.2209 46.448 63.2209 38.192C63.2209 29.936 59.4289 24.896 53.5729 24.896C47.6689 24.896 43.9249 29.936 43.9249 38.192C43.9249 46.448 47.6689 51.776 53.5729 51.776ZM83.9524 56V20.672H94.7044C102.576 20.672 108.192 23.36 108.192 31.376C108.192 39.104 102.576 42.608 94.8964 42.608H89.5684V56H83.9524ZM89.5684 38.144H94.3684C99.9844 38.144 102.672 35.984 102.672 31.376C102.672 26.672 99.7924 25.184 94.1284 25.184H89.5684V38.144ZM141.219 56V20.672H147.651L154.083 38.576C154.947 40.88 155.667 43.28 156.483 45.68H156.675C157.539 43.28 158.211 40.88 158.979 38.576L165.363 20.672H171.795V56H166.659V38.576C166.659 35.36 167.091 30.848 167.379 27.632H167.187L164.307 35.792L158.163 52.64H154.707L148.563 35.792L145.731 27.632H145.539C145.827 30.848 146.259 35.36 146.259 38.576V56H141.219ZM184.134 56L195.798 20.672H202.278L213.942 56H208.038L202.374 36.848C201.174 33.008 200.118 29.024 199.014 25.088H198.822C197.766 29.072 196.71 33.008 195.51 36.848L189.798 56H184.134ZM190.71 45.968V41.6H207.222V45.968H190.71ZM226.282 56V20.672H237.85C245.146 20.672 250.618 23.264 250.618 30.944C250.618 38.336 245.146 41.744 237.85 41.744H231.898V56H226.282ZM231.898 37.28H237.226C242.314 37.28 245.098 35.168 245.098 30.944C245.098 26.672 242.314 25.184 237.226 25.184H231.898V37.28ZM245.626 56L236.794 40.304L240.922 37.04L251.866 56H245.626ZM265.462 56V20.672H271.078V37.376H271.174L284.614 20.672H290.854L279.91 34.304L292.63 56H286.486L276.502 38.72L271.078 45.392V56H265.462ZM305.017 56V20.672H325.945V25.376H310.633V35.168H323.545V39.92H310.633V51.296H326.473V56H305.017ZM341.478 56V20.672H353.046C360.342 20.672 365.814 23.264 365.814 30.944C365.814 38.336 360.342 41.744 353.046 41.744H347.094V56H341.478ZM347.094 37.28H352.422C357.51 37.28 360.294 35.168 360.294 30.944C360.294 26.672 357.51 25.184 352.422 25.184H347.094V37.28ZM360.822 56L351.99 40.304L356.118 37.04L367.062 56H360.822ZM389.848 56.672C384.952 56.672 380.488 54.752 377.272 51.488L380.536 47.6C383.032 50.144 386.536 51.776 389.944 51.776C394.168 51.776 396.568 49.808 396.568 46.784C396.568 43.568 394.168 42.56 390.904 41.168L386.008 39.008C382.6 37.616 378.856 34.928 378.856 29.792C378.856 24.224 383.704 20.048 390.424 20.048C394.6 20.048 398.488 21.776 401.128 24.512L398.248 28.016C396.04 26.096 393.544 24.896 390.424 24.896C386.824 24.896 384.52 26.624 384.52 29.408C384.52 32.432 387.352 33.584 390.232 34.784L395.08 36.8C399.256 38.576 402.28 41.168 402.28 46.352C402.28 52.016 397.576 56.672 389.848 56.672Z"/>
</mask>
<path d="M11.808 56H10.808V57H11.808V56ZM11.808 25.376H12.808V24.376H11.808V25.376ZM1.44 25.376H0.44V26.376H1.44V25.376ZM1.44 20.672V19.672H0.44V20.672H1.44ZM27.792 20.672H28.792V19.672H27.792V20.672ZM27.792 25.376V26.376H28.792V25.376H27.792ZM17.424 25.376V24.376H16.424V25.376H17.424ZM17.424 56V57H18.424V56H17.424ZM12.808 56V25.376H10.808V56H12.808ZM11.808 24.376H1.44V26.376H11.808V24.376ZM2.44 25.376V20.672H0.44V25.376H2.44ZM1.44 21.672H27.792V19.672H1.44V21.672ZM26.792 20.672V25.376H28.792V20.672H26.792ZM27.792 24.376H17.424V26.376H27.792V24.376ZM16.424 25.376V56H18.424V25.376H16.424ZM17.424 55H11.808V57H17.424V55ZM53.5729 55.672C49.2893 55.672 45.7222 54.0242 43.211 51.0685C40.6873 48.0982 39.1649 43.7266 39.1649 38.192H37.1649C37.1649 44.0814 38.7865 48.9498 41.6868 52.3635C44.5996 55.7918 48.7365 57.672 53.5729 57.672V55.672ZM39.1649 38.192C39.1649 32.6828 40.6863 28.4005 43.203 25.5108C45.7083 22.6341 49.2755 21.048 53.5729 21.048V19.048C48.7502 19.048 44.6134 20.8459 41.6948 24.1972C38.7875 27.5355 37.1649 32.3251 37.1649 38.192H39.1649ZM53.5729 21.048C57.8447 21.048 61.4 22.6329 63.9001 25.5099C66.4114 28.4 67.9329 32.6829 67.9329 38.192H69.9329C69.9329 32.3251 68.3103 27.536 65.4097 24.1981C62.4977 20.8471 58.3731 19.048 53.5729 19.048V21.048ZM67.9329 38.192C67.9329 43.7266 66.4105 48.0987 63.8921 51.0694C61.3861 54.0254 57.8309 55.672 53.5729 55.672V57.672C58.3868 57.672 62.5116 55.7906 65.4177 52.3626C68.3113 48.9493 69.9329 44.0814 69.9329 38.192H67.9329ZM53.5729 52.776C56.8443 52.776 59.5521 51.2708 61.408 48.6593C63.2428 46.0774 64.2209 42.4587 64.2209 38.192H62.2209C62.2209 42.1813 61.3029 45.3546 59.7777 47.5007C58.2736 49.6172 56.1574 50.776 53.5729 50.776V52.776ZM64.2209 38.192C64.2209 33.9255 63.2428 30.3717 61.3994 27.8568C59.5334 25.311 56.8234 23.896 53.5729 23.896V25.896C56.1783 25.896 58.2924 27.001 59.7863 29.0392C61.303 31.1083 62.2209 34.2025 62.2209 38.192H64.2209ZM53.5729 23.896C50.3002 23.896 47.5887 25.3096 45.7273 27.8582C43.8898 30.3741 42.9249 33.9281 42.9249 38.192H44.9249C44.9249 34.1999 45.832 31.1059 47.3424 29.0378C48.829 27.0024 50.9416 25.896 53.5729 25.896V23.896ZM42.9249 38.192C42.9249 42.4561 43.8898 46.075 45.7188 48.6579C47.57 51.2722 50.2792 52.776 53.5729 52.776V50.776C50.9626 50.776 48.8477 49.6158 47.351 47.5021C45.832 45.357 44.9249 42.1839 44.9249 38.192H42.9249ZM83.9524 56H82.9524V57H83.9524V56ZM83.9524 20.672V19.672H82.9524V20.672H83.9524ZM89.5684 42.608V41.608H88.5684V42.608H89.5684ZM89.5684 56V57H90.5684V56H89.5684ZM89.5684 38.144H88.5684V39.144H89.5684V38.144ZM89.5684 25.184V24.184H88.5684V25.184H89.5684ZM84.9524 56V20.672H82.9524V56H84.9524ZM83.9524 21.672H94.7044V19.672H83.9524V21.672ZM94.7044 21.672C98.5587 21.672 101.685 22.336 103.826 23.8368C105.9 25.2908 107.192 27.6323 107.192 31.376H109.192C109.192 27.1037 107.676 24.0932 104.974 22.1992C102.339 20.352 98.7221 19.672 94.7044 19.672V21.672ZM107.192 31.376C107.192 34.9712 105.901 37.4717 103.81 39.1012C101.681 40.7601 98.6028 41.608 94.8964 41.608V43.608C98.87 43.608 102.44 42.7039 105.039 40.6788C107.676 38.6243 109.192 35.5088 109.192 31.376H107.192ZM94.8964 41.608H89.5684V43.608H94.8964V41.608ZM88.5684 42.608V56H90.5684V42.608H88.5684ZM89.5684 55H83.9524V57H89.5684V55ZM89.5684 39.144H94.3684V37.144H89.5684V39.144ZM94.3684 39.144C97.2742 39.144 99.6239 38.5906 101.257 37.2642C102.933 35.9026 103.672 33.8799 103.672 31.376H101.672C101.672 33.4801 101.067 34.8414 99.9959 35.7118C98.8809 36.6174 97.0785 37.144 94.3684 37.144V39.144ZM103.672 31.376C103.672 28.8013 102.867 26.886 101.082 25.6861C99.3937 24.5509 96.9993 24.184 94.1284 24.184V26.184C96.9214 26.184 98.799 26.5611 99.9665 27.3459C101.038 28.066 101.672 29.2467 101.672 31.376H103.672ZM94.1284 24.184H89.5684V26.184H94.1284V24.184ZM88.5684 25.184V38.144H90.5684V25.184H88.5684ZM141.219 56H140.219V57H141.219V56ZM141.219 20.672V19.672H140.219V20.672H141.219ZM147.651 20.672L148.592 20.3339L148.354 19.672H147.651V20.672ZM154.083 38.576L153.141 38.9141L153.146 38.9271L154.083 38.576ZM156.483 45.68L155.536 46.0019L155.766 46.68H156.483V45.68ZM156.675 45.68V46.68H157.377L157.616 46.0187L156.675 45.68ZM158.979 38.576L158.037 38.2401L158.033 38.2499L158.03 38.2598L158.979 38.576ZM165.363 20.672V19.672H164.658L164.421 20.3361L165.363 20.672ZM171.795 20.672H172.795V19.672H171.795V20.672ZM171.795 56V57H172.795V56H171.795ZM166.659 56H165.659V57H166.659V56ZM167.379 27.632L168.375 27.7212L168.472 26.632H167.379V27.632ZM167.187 27.632V26.632H166.479L166.244 27.2992L167.187 27.632ZM164.307 35.792L165.246 36.1346L165.25 36.1248L164.307 35.792ZM158.163 52.64V53.64H158.862L159.102 52.9826L158.163 52.64ZM154.707 52.64L153.767 52.9826L154.007 53.64H154.707V52.64ZM148.563 35.792L147.618 36.1199L147.62 36.1273L147.623 36.1346L148.563 35.792ZM145.731 27.632L146.675 27.3041L146.442 26.632H145.731V27.632ZM145.539 27.632V26.632H144.445L144.543 27.7212L145.539 27.632ZM146.259 56V57H147.259V56H146.259ZM142.219 56V20.672H140.219V56H142.219ZM141.219 21.672H147.651V19.672H141.219V21.672ZM146.71 21.0101L153.142 38.9141L155.024 38.2379L148.592 20.3339L146.71 21.0101ZM153.146 38.9271C154.005 41.2162 154.703 43.5512 155.536 46.0019L157.429 45.3581C156.631 43.0088 155.889 40.5438 155.019 38.2249L153.146 38.9271ZM156.483 46.68H156.675V44.68H156.483V46.68ZM157.616 46.0187C158.479 43.6214 159.186 41.1171 159.927 38.8922L158.03 38.2598C157.236 40.6429 156.599 42.9386 155.734 45.3413L157.616 46.0187ZM159.921 38.9119L166.305 21.0079L164.421 20.3361L158.037 38.2401L159.921 38.9119ZM165.363 21.672H171.795V19.672H165.363V21.672ZM170.795 20.672V56H172.795V20.672H170.795ZM171.795 55H166.659V57H171.795V55ZM167.659 56V38.576H165.659V56H167.659ZM167.659 38.576C167.659 35.4163 168.085 30.9602 168.375 27.7212L166.383 27.5428C166.097 30.7358 165.659 35.3037 165.659 38.576H167.659ZM167.379 26.632H167.187V28.632H167.379V26.632ZM166.244 27.2992L163.364 35.4592L165.25 36.1248L168.13 27.9648L166.244 27.2992ZM163.367 35.4494L157.223 52.2974L159.102 52.9826L165.246 36.1346L163.367 35.4494ZM158.163 51.64H154.707V53.64H158.163V51.64ZM155.646 52.2974L149.502 35.4494L147.623 36.1346L153.767 52.9826L155.646 52.2974ZM149.507 35.4641L146.675 27.3041L144.786 27.9599L147.618 36.1199L149.507 35.4641ZM145.731 26.632H145.539V28.632H145.731V26.632ZM144.543 27.7212C144.833 30.9602 145.259 35.4163 145.259 38.576H147.259C147.259 35.3037 146.821 30.7358 146.535 27.5428L144.543 27.7212ZM145.259 38.576V56H147.259V38.576H145.259ZM146.259 55H141.219V57H146.259V55ZM184.134 56L183.185 55.6865L182.751 57H184.134V56ZM195.798 20.672V19.672H195.075L194.849 20.3585L195.798 20.672ZM202.278 20.672L203.228 20.3585L203.001 19.672H202.278V20.672ZM213.942 56V57H215.326L214.892 55.6865L213.942 56ZM208.038 56L207.079 56.2836L207.291 57H208.038V56ZM202.374 36.848L203.333 36.5644L203.331 36.557L203.329 36.5497L202.374 36.848ZM199.014 25.088L199.977 24.8179L199.772 24.088H199.014V25.088ZM198.822 25.088V24.088H198.053L197.856 24.8318L198.822 25.088ZM195.51 36.848L194.556 36.5497L194.552 36.5622L195.51 36.848ZM189.798 56V57H190.544L190.757 56.2858L189.798 56ZM190.71 45.968H189.71V46.968H190.71V45.968ZM190.71 41.6V40.6H189.71V41.6H190.71ZM207.222 41.6H208.222V40.6H207.222V41.6ZM207.222 45.968V46.968H208.222V45.968H207.222ZM185.084 56.3135L196.748 20.9855L194.849 20.3585L183.185 55.6865L185.084 56.3135ZM195.798 21.672H202.278V19.672H195.798V21.672ZM201.329 20.9855L212.993 56.3135L214.892 55.6865L203.228 20.3585L201.329 20.9855ZM213.942 55H208.038V57H213.942V55ZM208.997 55.7164L203.333 36.5644L201.415 37.1316L207.079 56.2836L208.997 55.7164ZM203.329 36.5497C202.135 32.7284 201.087 28.7728 199.977 24.8179L198.052 25.3581C199.15 29.2752 200.214 33.2875 201.42 37.1463L203.329 36.5497ZM199.014 24.088H198.822V26.088H199.014V24.088ZM197.856 24.8318C196.8 28.8167 195.749 32.7332 194.556 36.5497L196.465 37.1463C197.672 33.2828 198.733 29.3273 199.789 25.3442L197.856 24.8318ZM194.552 36.5622L188.84 55.7142L190.757 56.2858L196.469 37.1338L194.552 36.5622ZM189.798 55H184.134V57H189.798V55ZM191.71 45.968V41.6H189.71V45.968H191.71ZM190.71 42.6H207.222V40.6H190.71V42.6ZM206.222 41.6V45.968H208.222V41.6H206.222ZM207.222 44.968H190.71V46.968H207.222V44.968ZM226.282 56H225.282V57H226.282V56ZM226.282 20.672V19.672H225.282V20.672H226.282ZM231.898 41.744V40.744H230.898V41.744H231.898ZM231.898 56V57H232.898V56H231.898ZM231.898 37.28H230.898V38.28H231.898V37.28ZM231.898 25.184V24.184H230.898V25.184H231.898ZM245.626 56L244.754 56.4904L245.041 57H245.626V56ZM236.794 40.304L236.174 39.5196L235.503 40.0496L235.922 40.7944L236.794 40.304ZM240.922 37.04L241.788 36.5401L241.209 35.5378L240.302 36.2556L240.922 37.04ZM251.866 56V57H253.598L252.732 55.5001L251.866 56ZM227.282 56V20.672H225.282V56H227.282ZM226.282 21.672H237.85V19.672H226.282V21.672ZM237.85 21.672C241.409 21.672 244.358 22.3097 246.393 23.7452C248.365 25.136 249.618 27.3736 249.618 30.944H251.618C251.618 26.8344 250.134 23.936 247.546 22.1108C245.022 20.3303 241.586 19.672 237.85 19.672V21.672ZM249.618 30.944C249.618 34.3654 248.367 36.7604 246.355 38.3271C244.308 39.9222 241.36 40.744 237.85 40.744V42.744C241.636 42.744 245.072 41.8618 247.584 39.9049C250.133 37.9196 251.618 34.9146 251.618 30.944H249.618ZM237.85 40.744H231.898V42.744H237.85V40.744ZM230.898 41.744V56H232.898V41.744H230.898ZM231.898 55H226.282V57H231.898V55ZM231.898 38.28H237.226V36.28H231.898V38.28ZM237.226 38.28C239.885 38.28 242.112 37.7317 243.691 36.4796C245.311 35.1951 246.098 33.2929 246.098 30.944H244.098C244.098 32.8191 243.492 34.0849 242.449 34.9124C241.364 35.7723 239.655 36.28 237.226 36.28V38.28ZM246.098 30.944C246.098 28.5652 245.304 26.772 243.632 25.6351C242.045 24.5558 239.826 24.184 237.226 24.184V26.184C239.714 26.184 241.43 26.5562 242.507 27.2889C243.5 27.964 244.098 29.0508 244.098 30.944H246.098ZM237.226 24.184H231.898V26.184H237.226V24.184ZM230.898 25.184V37.28H232.898V25.184H230.898ZM246.497 55.5096L237.665 39.8136L235.922 40.7944L244.754 56.4904L246.497 55.5096ZM237.414 41.0884L241.542 37.8244L240.302 36.2556L236.174 39.5196L237.414 41.0884ZM240.056 37.5399L251 56.4999L252.732 55.5001L241.788 36.5401L240.056 37.5399ZM251.866 55H245.626V57H251.866V55ZM265.462 56H264.462V57H265.462V56ZM265.462 20.672V19.672H264.462V20.672H265.462ZM271.078 20.672H272.078V19.672H271.078V20.672ZM271.078 37.376H270.078V38.376H271.078V37.376ZM271.174 37.376V38.376H271.653L271.953 38.0029L271.174 37.376ZM284.614 20.672V19.672H284.135L283.835 20.0451L284.614 20.672ZM290.854 20.672L291.634 21.298L292.939 19.672H290.854V20.672ZM279.91 34.304L279.13 33.678L278.699 34.2153L279.047 34.8098L279.91 34.304ZM292.63 56V57H294.375L293.492 55.4942L292.63 56ZM286.486 56L285.62 56.5003L285.909 57H286.486V56ZM276.502 38.72L277.368 38.2197L276.641 36.9629L275.726 38.0892L276.502 38.72ZM271.078 45.392L270.302 44.7612L270.078 45.0368V45.392H271.078ZM271.078 56V57H272.078V56H271.078ZM266.462 56V20.672H264.462V56H266.462ZM265.462 21.672H271.078V19.672H265.462V21.672ZM270.078 20.672V37.376H272.078V20.672H270.078ZM271.078 38.376H271.174V36.376H271.078V38.376ZM271.953 38.0029L285.393 21.2989L283.835 20.0451L270.395 36.7491L271.953 38.0029ZM284.614 21.672H290.854V19.672H284.614V21.672ZM290.074 20.046L279.13 33.678L280.69 34.93L291.634 21.298L290.074 20.046ZM279.047 34.8098L291.767 56.5058L293.492 55.4942L280.772 33.7982L279.047 34.8098ZM292.63 55H286.486V57H292.63V55ZM287.352 55.4997L277.368 38.2197L275.636 39.2203L285.62 56.5003L287.352 55.4997ZM275.726 38.0892L270.302 44.7612L271.854 46.0228L277.278 39.3508L275.726 38.0892ZM270.078 45.392V56H272.078V45.392H270.078ZM271.078 55H265.462V57H271.078V55ZM305.017 56H304.017V57H305.017V56ZM305.017 20.672V19.672H304.017V20.672H305.017ZM325.945 20.672H326.945V19.672H325.945V20.672ZM325.945 25.376V26.376H326.945V25.376H325.945ZM310.633 25.376V24.376H309.633V25.376H310.633ZM310.633 35.168H309.633V36.168H310.633V35.168ZM323.545 35.168H324.545V34.168H323.545V35.168ZM323.545 39.92V40.92H324.545V39.92H323.545ZM310.633 39.92V38.92H309.633V39.92H310.633ZM310.633 51.296H309.633V52.296H310.633V51.296ZM326.473 51.296H327.473V50.296H326.473V51.296ZM326.473 56V57H327.473V56H326.473ZM306.017 56V20.672H304.017V56H306.017ZM305.017 21.672H325.945V19.672H305.017V21.672ZM324.945 20.672V25.376H326.945V20.672H324.945ZM325.945 24.376H310.633V26.376H325.945V24.376ZM309.633 25.376V35.168H311.633V25.376H309.633ZM310.633 36.168H323.545V34.168H310.633V36.168ZM322.545 35.168V39.92H324.545V35.168H322.545ZM323.545 38.92H310.633V40.92H323.545V38.92ZM309.633 39.92V51.296H311.633V39.92H309.633ZM310.633 52.296H326.473V50.296H310.633V52.296ZM325.473 51.296V56H327.473V51.296H325.473ZM326.473 55H305.017V57H326.473V55ZM341.478 56H340.478V57H341.478V56ZM341.478 20.672V19.672H340.478V20.672H341.478ZM347.094 41.744V40.744H346.094V41.744H347.094ZM347.094 56V57H348.094V56H347.094ZM347.094 37.28H346.094V38.28H347.094V37.28ZM347.094 25.184V24.184H346.094V25.184H347.094ZM360.822 56L359.95 56.4904L360.237 57H360.822V56ZM351.99 40.304L351.37 39.5196L350.699 40.0496L351.118 40.7944L351.99 40.304ZM356.118 37.04L356.984 36.5401L356.406 35.5378L355.498 36.2556L356.118 37.04ZM367.062 56V57H368.794L367.928 55.5001L367.062 56ZM342.478 56V20.672H340.478V56H342.478ZM341.478 21.672H353.046V19.672H341.478V21.672ZM353.046 21.672C356.606 21.672 359.554 22.3097 361.59 23.7452C363.562 25.136 364.814 27.3736 364.814 30.944H366.814C366.814 26.8344 365.33 23.936 362.742 22.1108C360.218 20.3303 356.782 19.672 353.046 19.672V21.672ZM364.814 30.944C364.814 34.3654 363.563 36.7604 361.551 38.3271C359.504 39.9222 356.556 40.744 353.046 40.744V42.744C356.832 42.744 360.268 41.8618 362.781 39.9049C365.329 37.9196 366.814 34.9146 366.814 30.944H364.814ZM353.046 40.744H347.094V42.744H353.046V40.744ZM346.094 41.744V56H348.094V41.744H346.094ZM347.094 55H341.478V57H347.094V55ZM347.094 38.28H352.422V36.28H347.094V38.28ZM352.422 38.28C355.081 38.28 357.308 37.7317 358.887 36.4796C360.507 35.1951 361.294 33.2929 361.294 30.944H359.294C359.294 32.8191 358.689 34.0849 357.645 34.9124C356.56 35.7723 354.851 36.28 352.422 36.28V38.28ZM361.294 30.944C361.294 28.5652 360.5 26.772 358.828 25.6351C357.242 24.5558 355.022 24.184 352.422 24.184V26.184C354.91 26.184 356.626 26.5562 357.704 27.2889C358.696 27.964 359.294 29.0508 359.294 30.944H361.294ZM352.422 24.184H347.094V26.184H352.422V24.184ZM346.094 25.184V37.28H348.094V25.184H346.094ZM361.694 55.5096L352.862 39.8136L351.118 40.7944L359.95 56.4904L361.694 55.5096ZM352.61 41.0884L356.738 37.8244L355.498 36.2556L351.37 39.5196L352.61 41.0884ZM355.252 37.5399L366.196 56.4999L367.928 55.5001L356.984 36.5401L355.252 37.5399ZM367.062 55H360.822V57H367.062V55ZM377.272 51.488L376.507 50.845L375.922 51.5418L376.56 52.1898L377.272 51.488ZM380.536 47.6L381.25 46.8997L380.479 46.1134L379.771 46.957L380.536 47.6ZM390.904 41.168L390.501 42.083L390.512 42.0878L390.904 41.168ZM386.008 39.008L386.412 38.0931L386.399 38.0875L386.387 38.0822L386.008 39.008ZM401.128 24.512L401.901 25.147L402.467 24.4587L401.848 23.8176L401.128 24.512ZM398.248 28.016L397.592 28.7706L398.368 29.4453L399.021 28.651L398.248 28.016ZM390.232 34.784L389.848 35.7071L389.849 35.7073L390.232 34.784ZM395.08 36.8L395.472 35.8797L395.464 35.8767L395.08 36.8ZM389.848 55.672C385.218 55.672 381.011 53.8579 377.985 50.7862L376.56 52.1898C379.966 55.6461 384.687 57.672 389.848 57.672V55.672ZM378.038 52.131L381.302 48.243L379.771 46.957L376.507 50.845L378.038 52.131ZM379.823 48.3003C382.48 51.0092 386.233 52.776 389.944 52.776V50.776C386.84 50.776 383.585 49.2788 381.25 46.8997L379.823 48.3003ZM389.944 52.776C392.197 52.776 394.094 52.2526 395.451 51.2058C396.838 50.1361 397.568 48.5885 397.568 46.784H395.568C395.568 48.0035 395.099 48.9519 394.23 49.6222C393.331 50.3154 391.915 50.776 389.944 50.776V52.776ZM397.568 46.784C397.568 44.8616 396.822 43.5274 395.595 42.5193C394.452 41.5805 392.883 40.9245 391.297 40.2482L390.512 42.0878C392.19 42.8035 393.453 43.3475 394.326 44.0647C395.115 44.7126 395.568 45.4904 395.568 46.784H397.568ZM391.308 40.2531L386.412 38.0931L385.605 39.9229L390.501 42.0829L391.308 40.2531ZM386.387 38.0822C383.108 36.7432 379.856 34.3089 379.856 29.792H377.856C377.856 35.5471 382.093 38.4888 385.63 39.9338L386.387 38.0822ZM379.856 29.792C379.856 24.9246 384.096 21.048 390.424 21.048V19.048C383.313 19.048 377.856 23.5234 377.856 29.792H379.856ZM390.424 21.048C394.33 21.048 397.958 22.666 400.409 25.2064L401.848 23.8176C399.019 20.886 394.871 19.048 390.424 19.048V21.048ZM400.356 23.877L397.476 27.381L399.021 28.651L401.901 25.147L400.356 23.877ZM398.905 27.2614C396.558 25.221 393.838 23.896 390.424 23.896V25.896C393.251 25.896 395.523 26.971 397.592 28.7706L398.905 27.2614ZM390.424 23.896C388.478 23.896 386.767 24.3618 385.517 25.3119C384.239 26.284 383.52 27.7084 383.52 29.408H385.52C385.52 28.3236 385.954 27.492 386.728 26.9041C387.53 26.2942 388.771 25.896 390.424 25.896V23.896ZM383.52 29.408C383.52 31.3065 384.44 32.62 385.689 33.5746C386.882 34.4857 388.445 35.1227 389.848 35.7071L390.617 33.8609C389.14 33.2453 387.847 32.7063 386.904 31.9854C386.017 31.308 385.52 30.5335 385.52 29.408H383.52ZM389.849 35.7073L394.697 37.7233L395.464 35.8767L390.616 33.8607L389.849 35.7073ZM394.689 37.7202C396.708 38.579 398.347 39.5943 399.481 40.942C400.595 42.2646 401.28 43.9751 401.28 46.352H403.28C403.28 43.5449 402.454 41.3674 401.011 39.654C399.59 37.9657 397.629 36.797 395.472 35.8798L394.689 37.7202ZM401.28 46.352C401.28 51.3414 397.155 55.672 389.848 55.672V57.672C397.998 57.672 403.28 52.6906 403.28 46.352H401.28Z" fill="#ACFF6C" mask="url(#path-1-outside-1_3524_4122)"/>
</svg>
