<svg width="179" height="104" viewBox="0 0 179 104" fill="none" xmlns="http://www.w3.org/2000/svg">
<g opacity="0.8">
<path d="M33.06 73.7085H45.588V76.6965H33.06V73.7085ZM37.056 98.1525H46.704V100.961H37.056V98.1525ZM37.056 92.2845H46.776V94.9125H37.056V92.2845ZM31.44 80.4045H49.98V83.3925H31.44V80.4045ZM38.244 69.9645H41.412V82.3485H38.244V69.9645ZM47.748 71.0805L50.844 71.9805C47.028 81.1605 40.656 88.2525 32.628 92.6085C32.232 91.8885 31.224 90.4845 30.612 89.8005C38.388 86.0205 44.4 79.5045 47.748 71.0805ZM38.136 86.5245H46.632V89.2965H38.136V102.977H35.04V88.5045L36.912 86.5245H38.136ZM45.264 86.5245H48.54V102.473H45.264V86.5245ZM51.348 71.7285H62.04V74.9325H54.696V103.085H51.348V71.7285ZM61.212 71.7285H61.86L62.4 71.5845L64.848 73.1325C63.444 76.5525 61.644 80.6925 60.024 83.9685C63.48 87.2445 64.308 90.0885 64.308 92.5725C64.308 95.0205 63.768 96.7125 62.4 97.6125C61.716 98.0805 60.852 98.3685 59.916 98.4765C58.98 98.5845 57.756 98.6205 56.64 98.5485C56.604 97.6125 56.244 96.1365 55.704 95.2365C56.748 95.3085 57.684 95.3445 58.404 95.3085C59.016 95.2725 59.592 95.1645 60.024 94.9125C60.78 94.4805 61.032 93.5085 61.032 92.2485C61.032 90.0885 60.024 87.3885 56.604 84.4005C58.332 80.7645 60.204 75.6165 61.212 72.8445V71.7285ZM68.124 75.0045H99.912V78.2805H68.124V75.0045ZM79.536 86.5245H98.472V89.6925H79.536V86.5245ZM78.132 99.0525H99.84V102.221H78.132V99.0525ZM87.312 80.0085H90.732V100.745H87.312V80.0085ZM79.752 69.6765L83.28 70.5405C80.688 78.9645 76.224 87.4965 68.844 92.6805C68.484 91.7445 67.656 90.2685 67.116 89.4765C73.632 85.0485 77.772 77.0205 79.752 69.6765ZM72.588 84.6165H76.008V103.013H72.588V84.6165ZM122.844 69.7125H126.084V90.5205H122.844V69.7125ZM114.096 89.0805H131.916V91.9605H114.096V89.0805ZM127.452 78.1365H133.104V80.9445H127.452V78.1365ZM116.076 78.1365H121.548V80.9445H116.076V78.1365ZM114.492 83.8965H121.728V86.7765H114.492V83.8965ZM114.492 73.3125L117.516 74.2845V85.8765H114.492V73.3125ZM120.108 70.6845L122.196 73.1325C120.108 74.0325 117.768 74.8245 116.004 75.2565L114.492 73.3125C116.184 72.7365 118.704 71.5125 120.108 70.6845ZM130.98 89.0805H131.664L132.24 88.9725L134.4 89.9445C130.944 97.9365 122.772 101.609 113.592 103.157C113.304 102.293 112.62 100.889 112.044 100.133C120.576 99.0525 128.244 95.8125 130.98 89.5485V89.0805ZM119.568 91.3845C122.664 95.9565 129.144 99.0165 136.956 100.097C136.2 100.817 135.3 102.221 134.832 103.085C126.768 101.681 120.324 98.0445 116.652 92.4285L119.568 91.3845ZM127.272 72.3045H134.724V86.8125H127.272V83.9325H131.772V75.1485H127.272V72.3045ZM103.152 88.5045C105.744 87.7485 109.56 86.4165 113.268 85.0845L113.844 88.1445C110.496 89.4045 106.896 90.7365 104.016 91.7805L103.152 88.5045ZM103.584 76.7685H113.376V79.9005H103.584V76.7685ZM107.364 69.7485H110.532V99.0165C110.532 100.673 110.172 101.573 109.236 102.113C108.264 102.653 106.824 102.761 104.628 102.761C104.556 101.897 104.16 100.493 103.728 99.5565C105.096 99.6285 106.356 99.6285 106.788 99.5925C107.22 99.5925 107.364 99.4845 107.364 99.0165V69.7485Z" fill="#B595FF"/>
<path d="M11.124 37.2414H42.948V40.7334H11.124V37.2414ZM29.088 38.6454C31.356 47.1414 36.108 54.1974 43.632 57.2934C42.768 58.0494 41.652 59.5254 41.076 60.4974C33.084 56.7534 28.368 49.2294 25.668 39.4374L29.088 38.6454ZM25.128 27.1974H28.836C28.692 37.3134 28.62 53.1894 12.996 60.4974C12.456 59.5974 11.412 58.3734 10.44 57.6534C25.488 51.0294 25.02 36.3054 25.128 27.1974ZM47.772 30.2214H78.408V37.9974H74.916V33.3534H51.12V37.9974H47.772V30.2214ZM52.632 36.1614H73.26V39.0774H52.632V36.1614ZM58.896 41.6334L61.488 40.1934C68.508 46.1334 68.256 56.5374 65.016 59.0934C63.828 60.2094 62.784 60.5334 61.056 60.5334C60.264 60.5694 59.148 60.5334 58.032 60.4974C57.996 59.5614 57.708 58.1934 57.096 57.2574C58.428 57.4014 59.616 57.4374 60.408 57.4374C61.308 57.4374 61.956 57.3294 62.532 56.6454C64.548 54.9894 64.872 46.8174 58.896 41.6334ZM62.676 37.0974L65.484 38.2854C61.704 42.0294 55.26 44.8014 49.464 46.4574C49.14 45.8094 48.24 44.4054 47.664 43.7574C53.28 42.4974 59.436 40.1574 62.676 37.0974ZM61.416 43.9014L63.612 45.5214C60.156 48.1134 53.892 50.9934 49.212 52.4694C48.816 51.7134 48.096 50.5614 47.484 49.8414C52.128 48.7614 58.356 46.2054 61.416 43.9014ZM63.504 48.1494L65.844 49.9134C61.884 53.5134 54.612 57.1494 48.708 58.9494C48.312 58.0854 47.592 56.8614 46.944 56.1054C52.776 54.7374 59.976 51.3894 63.504 48.1494ZM70.74 45.9174C72.288 50.5614 75.528 54.5214 79.956 56.2854C79.2 56.8974 78.192 58.1934 77.724 59.0574C72.864 56.7894 69.552 52.2894 67.752 46.6374L70.74 45.9174ZM73.188 40.1214L75.996 42.3534C72.864 44.8374 68.76 47.6094 65.628 49.3014L63.432 47.3574C66.528 45.5574 70.704 42.4974 73.188 40.1214ZM59.976 27.8814L63.54 26.8734C64.332 28.1694 65.232 29.9334 65.52 31.0854L61.812 32.2734C61.524 31.0854 60.732 29.2494 59.976 27.8814Z" fill="#B3B3B3"/>
<g clip-path="url(#clip0_526_1099)">
<path d="M161.923 97.0208L134.451 59.9571C131.548 61.7694 128.333 63.0277 124.804 63.7323C121.276 64.4368 117.82 64.5377 114.437 64.0347C106.185 62.8083 99.6256 58.9139 94.7583 52.3513C89.891 45.7888 88.0706 38.3817 89.297 30.1301C90.5234 21.8785 94.4164 15.3171 100.976 10.4459C107.536 5.57467 114.942 3.74883 123.194 4.96837C131.447 6.1879 138.01 10.0846 142.882 16.6584C147.755 23.2323 149.578 30.6433 148.352 38.8915C147.82 42.4711 146.672 45.8414 144.906 49.0024C143.141 52.1634 141.049 54.7809 138.63 56.8547L166.103 93.9132L161.923 97.0208ZM115.208 58.8774C122.045 59.8934 128.166 58.398 133.572 54.3911C138.977 50.3842 142.189 44.9609 143.205 38.1212C144.222 31.2815 142.726 25.1605 138.719 19.758C134.712 14.3556 129.29 11.1446 122.454 10.1252C115.618 9.10568 109.496 10.6008 104.086 14.6107C98.6761 18.6205 95.4651 24.042 94.453 30.8754C93.4409 37.7087 94.9363 43.8298 98.9393 49.2386C102.942 54.6474 108.364 57.8583 115.204 58.8715" fill="#B3B3B3"/>
</g>
</g>
<defs>
<clipPath id="clip0_526_1099">
<rect width="85.5466" height="86.095" fill="white" transform="translate(93.6572 0.131836) rotate(8.45377)"/>
</clipPath>
</defs>
</svg>
