<svg width="60" height="60" viewBox="0 0 60 60" fill="none" xmlns="http://www.w3.org/2000/svg">
<g clip-path="url(#clip0_3258_4950)">
<path d="M30 55L28.5158 56.3406L30 57.9838L31.4842 56.3406L30 55ZM30 55C31.4842 56.3406 31.4845 56.3403 31.4848 56.3399L31.4859 56.3387L31.4892 56.3351L31.5005 56.3225L31.5416 56.2766C31.5772 56.2367 31.6289 56.1787 31.6955 56.1032C31.8288 55.9523 32.0222 55.7315 32.2672 55.4473C32.7569 54.8788 33.4532 54.0556 34.2873 53.0279C35.9537 50.9747 38.1788 48.0943 40.4079 44.7905C42.6332 41.4923 44.8871 37.7358 46.5908 33.9329C48.2828 30.1562 49.5 26.1859 49.5 22.5C49.5 17.3283 47.4455 12.3684 43.7886 8.71142C40.1316 5.05446 35.1717 3 30 3C24.8283 3 19.8684 5.05446 16.2114 8.71142C12.5545 12.3684 10.5 17.3283 10.5 22.5C10.5 26.1859 11.7172 30.1562 13.4092 33.9329C15.1129 37.7358 17.3668 41.4923 19.5921 44.7905C21.8212 48.0943 24.0463 50.9747 25.7127 53.0279C26.5468 54.0556 27.2431 54.8788 27.7328 55.4473C27.9777 55.7315 28.1712 55.9523 28.3045 56.1032C28.3711 56.1787 28.4228 56.2367 28.4584 56.2766L28.4995 56.3225L28.5108 56.3351L28.5141 56.3387L28.5152 56.3399C28.5155 56.3403 28.5158 56.3406 30 55ZM30 26.75C28.8728 26.75 27.7918 26.3022 26.9948 25.5052C26.1978 24.7082 25.75 23.6272 25.75 22.5C25.75 21.3728 26.1978 20.2918 26.9948 19.4948C27.7918 18.6978 28.8728 18.25 30 18.25C31.1272 18.25 32.2082 18.6978 33.0052 19.4948C33.8022 20.2918 34.25 21.3728 34.25 22.5C34.25 23.0581 34.1401 23.6108 33.9265 24.1264C33.7129 24.642 33.3999 25.1106 33.0052 25.5052C32.6106 25.8999 32.142 26.2129 31.6264 26.4265C31.1108 26.6401 30.5581 26.75 30 26.75Z" fill="#B595FF" stroke="#B3B3B3" stroke-width="4"/>
</g>
<defs>
<clipPath id="clip0_3258_4950">
<rect width="60" height="60" fill="white"/>
</clipPath>
</defs>
</svg>
