<svg width="50" height="50" viewBox="0 0 50 50" fill="none" xmlns="http://www.w3.org/2000/svg">
<path d="M25.0003 23.9582C23.619 23.9582 22.2942 23.4094 21.3175 22.4327C20.3407 21.4559 19.792 20.1312 19.792 18.7498C19.792 17.3685 20.3407 16.0437 21.3175 15.067C22.2942 14.0902 23.619 13.5415 25.0003 13.5415C26.3817 13.5415 27.7064 14.0902 28.6832 15.067C29.6599 16.0437 30.2087 17.3685 30.2087 18.7498C30.2087 19.4338 30.0739 20.1111 29.8122 20.743C29.5505 21.3749 29.1668 21.949 28.6832 22.4327C28.1995 22.9163 27.6254 23.3 26.9935 23.5617C26.3616 23.8235 25.6843 23.9582 25.0003 23.9582ZM25.0003 4.1665C21.1326 4.1665 17.4233 5.70296 14.6884 8.43786C11.9534 11.1728 10.417 14.8821 10.417 18.7498C10.417 29.6873 25.0003 45.8332 25.0003 45.8332C25.0003 45.8332 39.5837 29.6873 39.5837 18.7498C39.5837 14.8821 38.0472 11.1728 35.3123 8.43786C32.5774 5.70296 28.8681 4.1665 25.0003 4.1665Z" fill="#ACFF6C"/>
</svg>
