<svg width="35" height="40" viewBox="0 0 35 40" fill="none" xmlns="http://www.w3.org/2000/svg">
<g clip-path="url(#clip0_2116_562)">
<path d="M3.66932 17.0971C3.97878 15.5951 4.45623 14.159 5.12821 12.8239C5.80902 11.4844 6.67109 10.2459 7.70115 9.16557C8.73121 8.08081 9.92042 7.14976 11.2246 6.39438C12.5287 5.639 13.9434 5.06368 15.4421 4.63768H15.4509C15.4509 4.63768 15.8355 3.17084 16.5959 2.39789C17.3563 1.62055 17.1883 0 17.1883 0C17.1883 0 16.9098 1.03206 16.397 1.31313C15.7294 1.68204 14.412 1.63812 14.0628 3.0874C13.9125 3.70663 14.0539 4.06675 14.2087 4.27756C12.9929 4.44444 11.7905 4.81335 10.6676 5.34475C9.18214 6.04743 7.82935 7.03118 6.70203 8.23013C5.57471 9.42907 4.65959 10.8256 4.04509 12.3408C3.73121 13.105 3.49248 13.8999 3.33333 14.7036C2.79399 14.765 1.96286 14.9846 1.73298 15.7268C1.4412 16.693 0 17.1454 0 17.1454H3.6649L3.66932 17.0971Z" fill="#ACFF6C"/>
<path d="M19.5447 4.63768H19.5535C21.0522 5.06368 22.4669 5.639 23.771 6.39438C25.0752 7.14976 26.2644 8.0852 27.2944 9.16557C28.3289 10.2459 29.1866 11.4844 29.8674 12.8239C30.5438 14.159 31.0168 15.5951 31.3263 17.0971L31.3307 17.1454H34.9956C34.9956 17.1454 33.5544 16.693 33.2582 15.7268C33.0327 14.9846 32.1972 14.765 31.6578 14.7036C31.4987 13.8999 31.26 13.105 30.9461 12.3408C30.3316 10.8256 29.4165 9.42907 28.2891 8.23013C27.1618 7.03118 25.8046 6.04304 24.3236 5.34475C23.2007 4.81335 22.0027 4.44444 20.7825 4.27756C20.9417 4.06675 21.0787 3.70663 20.9284 3.0874C20.5791 1.63812 19.2661 1.67765 18.5942 1.31313C18.0902 1.03206 17.8161 0 17.8161 0C17.8161 0 17.6437 1.62055 18.4041 2.39789C19.16 3.17084 19.5447 4.63768 19.5447 4.63768Z" fill="#ACFF6C"/>
<path d="M17.4447 15.6348L16.5517 17.3168L15.5128 18.0283L16.5517 18.7178L17.4447 21.0015L18.3422 18.7178L19.3767 18.0283L18.3422 17.3168L17.4447 15.6348Z" fill="#ACFF6C"/>
<path d="M14.1645 35.5116V36.0122L14.6021 36.2669L15.0398 36.0122V35.5116L14.6021 35.2612L14.1645 35.5116Z" fill="#ACFF6C"/>
<path d="M19.7569 35.5116V36.0122L20.1945 36.2669L20.6366 36.0122V35.5116L20.1945 35.2612L19.7569 35.5116Z" fill="#ACFF6C"/>
<path d="M31.3351 18.5992L31.3307 18.6475C31.0212 20.1494 30.5438 21.5855 29.8718 22.9206C29.191 24.2601 28.3289 25.4986 27.2989 26.579C26.2688 27.6637 25.0796 28.5948 23.7754 29.3501C23.3466 29.6005 22.9001 29.8245 22.4447 30.0353C22.2458 29.965 22.0557 29.8859 21.8744 29.7981C21.8523 29.7893 21.8302 29.7761 21.8081 29.7674C21.6225 29.6751 21.4456 29.5697 21.2865 29.4555C21.2688 29.4424 21.2511 29.4336 21.2334 29.4204C21.1052 29.3282 20.9859 29.2228 20.8798 29.113C20.8621 29.0954 20.8444 29.0735 20.8223 29.0559C20.7162 28.9417 20.6233 28.8231 20.5393 28.6914C20.5261 28.6694 20.5128 28.6475 20.4996 28.6255C20.42 28.4894 20.3448 28.34 20.2874 28.1819C20.2829 28.1644 20.2741 28.1424 20.2697 28.1248C20.2122 27.9536 20.168 27.7735 20.137 27.5759C19.7347 24.7212 21.1406 20.9004 23.771 20.9004C24.8541 20.9004 25.0309 17.8965 26.7109 17.8306C26.7816 17.8262 26.817 17.8262 26.8435 17.8218C26.8568 17.8218 26.8612 17.8218 26.8656 17.8174C26.87 17.8174 26.8745 17.8174 26.8745 17.8174H26.87C26.8612 17.813 26.8258 17.813 26.7551 17.8086C26.7374 17.8086 26.7286 17.8086 26.7109 17.8086C25.0265 17.7428 24.7657 15.2263 23.771 15.2263C19.4783 15.2263 17.5464 4.36551 17.4978 4.04931C17.4492 4.36551 15.4156 15.2263 11.2246 15.2263C10.1813 15.2263 9.9779 17.7428 8.29797 17.8086C8.28028 17.8086 8.27144 17.8086 8.25376 17.8086C8.18302 17.813 8.14766 17.813 8.13882 17.8174C8.1344 17.8174 8.13439 17.8174 8.13439 17.8174C8.13439 17.8174 8.13882 17.8174 8.14324 17.8174C8.14766 17.8174 8.15208 17.8174 8.16534 17.8218C8.19187 17.8262 8.23165 17.8262 8.29797 17.8306C9.98232 17.8965 10.1238 20.9004 11.2246 20.9004C13.855 20.9004 15.2564 24.7212 14.8585 27.5759C14.832 27.7735 14.7834 27.9536 14.7259 28.1248C14.7215 28.1424 14.7171 28.1644 14.7082 28.1819C14.6508 28.34 14.58 28.4894 14.496 28.6255C14.4828 28.6475 14.4695 28.6694 14.4562 28.6914C14.3722 28.8231 14.2794 28.9461 14.1733 29.0559C14.1556 29.0735 14.1379 29.0954 14.1158 29.113C14.0053 29.2228 13.8904 29.3282 13.7622 29.4204C13.7445 29.4336 13.7268 29.4424 13.7091 29.4555C13.55 29.5697 13.3731 29.6707 13.1874 29.7674C13.1653 29.7761 13.1432 29.7893 13.1211 29.7981C12.9399 29.8859 12.7498 29.9606 12.5508 30.0353C12.0955 29.8245 11.6534 29.6005 11.2202 29.3545C9.916 28.5992 8.72679 27.6637 7.69673 26.5833C6.66225 25.503 5.8046 24.2645 5.12379 22.925C4.44739 21.5899 3.97436 20.1538 3.6649 18.6519L3.66048 18.6035H0C0 18.6035 1.4412 19.0559 1.7374 20.0221C1.96286 20.7643 2.79841 20.9839 3.33775 21.0454C3.49691 21.849 3.73563 22.644 4.04951 23.4081C4.66401 24.9233 5.57913 26.3198 6.70646 27.5188C7.83378 28.7177 9.19098 29.7059 10.672 30.4042C10.9726 30.5447 11.2821 30.6721 11.5915 30.7906C12.2944 31.322 12.6437 32.297 13.2803 32.8108C14.1424 33.5091 15.4244 33.7419 15.9903 34.5104C16.1229 34.6905 16.2423 34.8706 16.3528 35.0506C17.2237 36.7502 17.4845 39.8903 17.5022 39.9913C17.5199 39.8947 17.7807 36.7502 18.6516 35.0506C18.7622 34.8706 18.8815 34.6905 19.0141 34.5104C19.5844 33.7419 20.8621 33.5091 21.7241 32.8108C22.3607 32.297 22.71 31.322 23.4129 30.7906C23.7268 30.6721 24.0363 30.5447 24.3369 30.3998C25.8223 29.6971 27.1751 28.7133 28.3024 27.5144C29.4297 26.3155 30.3448 24.9189 30.9593 23.4037C31.2732 22.6396 31.5119 21.8447 31.6711 21.041C32.2104 20.9795 33.0416 20.7599 33.2714 20.0177C33.5676 19.0515 35.0088 18.5992 35.0088 18.5992H31.3351ZM17.4845 33.6497L16.8612 31.344L17.4845 29.2887L18.1079 31.344L17.4845 33.6497ZM17.5022 23.7814L15.3714 19.3018L12.9045 17.9492L15.3714 16.5438L17.5022 13.2412L19.6331 16.5438L22.0999 17.9492L19.6331 19.3018L17.5022 23.7814Z" fill="#ACFF6C"/>
</g>
<defs>
<clipPath id="clip0_2116_562">
<rect width="35" height="40" fill="white"/>
</clipPath>
</defs>
</svg>
