<svg width="240" height="40" viewBox="0 0 240 40" fill="none" xmlns="http://www.w3.org/2000/svg">
<g clip-path="url(#clip0_2349_561)">
<path d="M3.66932 17.0971C3.97878 15.5951 4.45623 14.159 5.12821 12.8239C5.80902 11.4844 6.67109 10.2459 7.70115 9.16557C8.73121 8.08081 9.92042 7.14976 11.2246 6.39438C12.5287 5.639 13.9434 5.06368 15.4421 4.63768H15.4509C15.4509 4.63768 15.8355 3.17084 16.5959 2.39789C17.3563 1.62055 17.1883 0 17.1883 0C17.1883 0 16.9098 1.03206 16.397 1.31313C15.7294 1.68204 14.412 1.63812 14.0628 3.0874C13.9125 3.70663 14.0539 4.06675 14.2087 4.27756C12.9929 4.44444 11.7905 4.81335 10.6676 5.34475C9.18214 6.04743 7.82935 7.03118 6.70203 8.23013C5.57471 9.42907 4.65959 10.8256 4.04509 12.3408C3.73121 13.105 3.49248 13.8999 3.33333 14.7036C2.79399 14.765 1.96286 14.9846 1.73298 15.7268C1.4412 16.693 0 17.1454 0 17.1454H3.6649L3.66932 17.0971Z" fill="#B595FF"/>
<path d="M19.5447 4.63768H19.5535C21.0522 5.06368 22.4669 5.639 23.771 6.39438C25.0752 7.14976 26.2644 8.0852 27.2944 9.16557C28.3289 10.2459 29.1866 11.4844 29.8674 12.8239C30.5438 14.159 31.0168 15.5951 31.3263 17.0971L31.3307 17.1454H34.9956C34.9956 17.1454 33.5544 16.693 33.2582 15.7268C33.0327 14.9846 32.1972 14.765 31.6578 14.7036C31.4987 13.8999 31.26 13.105 30.9461 12.3408C30.3316 10.8256 29.4165 9.42907 28.2891 8.23013C27.1618 7.03118 25.8046 6.04304 24.3236 5.34475C23.2007 4.81335 22.0027 4.44444 20.7825 4.27756C20.9417 4.06675 21.0787 3.70663 20.9284 3.0874C20.5791 1.63812 19.2661 1.67765 18.5942 1.31313C18.0902 1.03206 17.8161 0 17.8161 0C17.8161 0 17.6437 1.62055 18.4041 2.39789C19.16 3.17084 19.5447 4.63768 19.5447 4.63768Z" fill="#B595FF"/>
<path d="M17.4447 15.6348L16.5517 17.3168L15.5128 18.0283L16.5517 18.7178L17.4447 21.0015L18.3422 18.7178L19.3767 18.0283L18.3422 17.3168L17.4447 15.6348Z" fill="#B595FF"/>
<path d="M14.1645 35.5116V36.0122L14.6021 36.2669L15.0398 36.0122V35.5116L14.6021 35.2612L14.1645 35.5116Z" fill="#B595FF"/>
<path d="M19.7569 35.5116V36.0122L20.1945 36.2669L20.6366 36.0122V35.5116L20.1945 35.2612L19.7569 35.5116Z" fill="#B595FF"/>
<path d="M31.3351 18.5992L31.3307 18.6475C31.0212 20.1494 30.5438 21.5855 29.8718 22.9206C29.191 24.2601 28.3289 25.4986 27.2989 26.579C26.2688 27.6637 25.0796 28.5948 23.7754 29.3501C23.3466 29.6005 22.9001 29.8245 22.4447 30.0353C22.2458 29.965 22.0557 29.8859 21.8744 29.7981C21.8523 29.7893 21.8302 29.7761 21.8081 29.7674C21.6225 29.6751 21.4456 29.5697 21.2865 29.4555C21.2688 29.4424 21.2511 29.4336 21.2334 29.4204C21.1052 29.3282 20.9859 29.2228 20.8798 29.113C20.8621 29.0954 20.8444 29.0735 20.8223 29.0559C20.7162 28.9417 20.6233 28.8231 20.5393 28.6914C20.5261 28.6694 20.5128 28.6475 20.4996 28.6255C20.42 28.4894 20.3448 28.34 20.2874 28.1819C20.2829 28.1644 20.2741 28.1424 20.2697 28.1248C20.2122 27.9536 20.168 27.7735 20.137 27.5759C19.7347 24.7212 21.1406 20.9004 23.771 20.9004C24.8541 20.9004 25.0309 17.8965 26.7109 17.8306C26.7816 17.8262 26.817 17.8262 26.8435 17.8218C26.8568 17.8218 26.8612 17.8218 26.8656 17.8174C26.87 17.8174 26.8745 17.8174 26.8745 17.8174H26.87C26.8612 17.813 26.8258 17.813 26.7551 17.8086C26.7374 17.8086 26.7286 17.8086 26.7109 17.8086C25.0265 17.7428 24.7657 15.2263 23.771 15.2263C19.4783 15.2263 17.5464 4.36551 17.4978 4.04931C17.4492 4.36551 15.4156 15.2263 11.2246 15.2263C10.1813 15.2263 9.9779 17.7428 8.29797 17.8086C8.28028 17.8086 8.27144 17.8086 8.25376 17.8086C8.18302 17.813 8.14766 17.813 8.13882 17.8174C8.1344 17.8174 8.13439 17.8174 8.13439 17.8174C8.13439 17.8174 8.13882 17.8174 8.14324 17.8174C8.14766 17.8174 8.15208 17.8174 8.16534 17.8218C8.19187 17.8262 8.23165 17.8262 8.29797 17.8306C9.98232 17.8965 10.1238 20.9004 11.2246 20.9004C13.855 20.9004 15.2564 24.7212 14.8585 27.5759C14.832 27.7735 14.7834 27.9536 14.7259 28.1248C14.7215 28.1424 14.7171 28.1644 14.7082 28.1819C14.6508 28.34 14.58 28.4894 14.496 28.6255C14.4828 28.6475 14.4695 28.6694 14.4562 28.6914C14.3722 28.8231 14.2794 28.9461 14.1733 29.0559C14.1556 29.0735 14.1379 29.0954 14.1158 29.113C14.0053 29.2228 13.8904 29.3282 13.7622 29.4204C13.7445 29.4336 13.7268 29.4424 13.7091 29.4555C13.55 29.5697 13.3731 29.6707 13.1874 29.7674C13.1653 29.7761 13.1432 29.7893 13.1211 29.7981C12.9399 29.8859 12.7498 29.9606 12.5508 30.0353C12.0955 29.8245 11.6534 29.6005 11.2202 29.3545C9.916 28.5992 8.72679 27.6637 7.69673 26.5833C6.66225 25.503 5.8046 24.2645 5.12379 22.925C4.44739 21.5899 3.97436 20.1538 3.6649 18.6519L3.66048 18.6035H0C0 18.6035 1.4412 19.0559 1.7374 20.0221C1.96286 20.7643 2.79841 20.9839 3.33775 21.0454C3.49691 21.849 3.73563 22.644 4.04951 23.4081C4.66401 24.9233 5.57913 26.3198 6.70646 27.5188C7.83378 28.7177 9.19098 29.7059 10.672 30.4042C10.9726 30.5447 11.2821 30.6721 11.5915 30.7906C12.2944 31.322 12.6437 32.297 13.2803 32.8108C14.1424 33.5091 15.4244 33.7419 15.9903 34.5104C16.1229 34.6905 16.2423 34.8706 16.3528 35.0506C17.2237 36.7502 17.4845 39.8903 17.5022 39.9913C17.5199 39.8947 17.7807 36.7502 18.6516 35.0506C18.7622 34.8706 18.8815 34.6905 19.0141 34.5104C19.5844 33.7419 20.8621 33.5091 21.7241 32.8108C22.3607 32.297 22.71 31.322 23.4129 30.7906C23.7268 30.6721 24.0363 30.5447 24.3369 30.3998C25.8223 29.6971 27.1751 28.7133 28.3024 27.5144C29.4297 26.3155 30.3448 24.9189 30.9593 23.4037C31.2732 22.6396 31.5119 21.8447 31.6711 21.041C32.2104 20.9795 33.0416 20.7599 33.2714 20.0177C33.5676 19.0515 35.0088 18.5992 35.0088 18.5992H31.3351ZM17.4845 33.6497L16.8612 31.344L17.4845 29.2887L18.1079 31.344L17.4845 33.6497ZM17.5022 23.7814L15.3714 19.3018L12.9045 17.9492L15.3714 16.5438L17.5022 13.2412L19.6331 16.5438L22.0999 17.9492L19.6331 19.3018L17.5022 23.7814Z" fill="#B595FF"/>
</g>
<path d="M46.1445 11.0938H48.7012L55.2227 27.3223L61.7305 11.0938H64.3008L56.207 31H54.2109L46.1445 11.0938ZM45.3105 11.0938H47.5664L47.9355 23.2344V31H45.3105V11.0938ZM62.8652 11.0938H65.1211V31H62.4961V23.2344L62.8652 11.0938ZM73.5293 29.4688L77.6445 16.207H80.3516L74.418 33.2832C74.2812 33.6478 74.099 34.0397 73.8711 34.459C73.6523 34.8874 73.3698 35.293 73.0234 35.6758C72.6771 36.0586 72.2578 36.3685 71.7656 36.6055C71.2826 36.8516 70.7038 36.9746 70.0293 36.9746C69.8288 36.9746 69.5736 36.9473 69.2637 36.8926C68.9538 36.8379 68.735 36.7923 68.6074 36.7559L68.5938 34.7051C68.6667 34.7142 68.7806 34.7233 68.9355 34.7324C69.0996 34.7507 69.2135 34.7598 69.2773 34.7598C69.8516 34.7598 70.3392 34.6823 70.7402 34.5273C71.1413 34.3815 71.4785 34.1309 71.752 33.7754C72.0345 33.429 72.276 32.9505 72.4766 32.3398L73.5293 29.4688ZM70.5078 16.207L74.3496 27.6914L75.0059 30.3574L73.1875 31.2871L67.7461 16.207H70.5078ZM91.248 27.0762C91.248 26.7116 91.166 26.3743 91.002 26.0645C90.847 25.7454 90.5234 25.4583 90.0312 25.2031C89.5482 24.9388 88.819 24.7109 87.8438 24.5195C87.0234 24.3464 86.2806 24.1413 85.6152 23.9043C84.959 23.6673 84.3984 23.3802 83.9336 23.043C83.4779 22.7057 83.127 22.3092 82.8809 21.8535C82.6348 21.3978 82.5117 20.8646 82.5117 20.2539C82.5117 19.6706 82.6393 19.1191 82.8945 18.5996C83.1589 18.0801 83.528 17.6198 84.002 17.2188C84.485 16.8177 85.0638 16.5033 85.7383 16.2754C86.4128 16.0475 87.1647 15.9336 87.9941 15.9336C89.179 15.9336 90.1908 16.1432 91.0293 16.5625C91.8678 16.9818 92.5104 17.5423 92.957 18.2441C93.4036 18.9368 93.627 19.707 93.627 20.5547H91.0977C91.0977 20.1445 90.9746 19.748 90.7285 19.3652C90.4915 18.9733 90.1406 18.6497 89.6758 18.3945C89.2201 18.1393 88.6595 18.0117 87.9941 18.0117C87.2923 18.0117 86.7227 18.1211 86.2852 18.3398C85.8568 18.5495 85.5423 18.8184 85.3418 19.1465C85.1504 19.4746 85.0547 19.821 85.0547 20.1855C85.0547 20.459 85.1003 20.7051 85.1914 20.9238C85.2917 21.1335 85.4648 21.3294 85.7109 21.5117C85.957 21.6849 86.3034 21.849 86.75 22.0039C87.1966 22.1589 87.7663 22.3138 88.459 22.4688C89.6712 22.7422 90.6693 23.0703 91.4531 23.4531C92.237 23.8359 92.8203 24.3053 93.2031 24.8613C93.5859 25.4173 93.7773 26.0918 93.7773 26.8848C93.7773 27.5319 93.6406 28.1243 93.3672 28.6621C93.1029 29.1999 92.7155 29.6647 92.2051 30.0566C91.7038 30.4395 91.1022 30.7402 90.4004 30.959C89.7077 31.1686 88.9284 31.2734 88.0625 31.2734C86.7591 31.2734 85.6562 31.041 84.7539 30.5762C83.8516 30.1113 83.168 29.5098 82.7031 28.7715C82.2383 28.0332 82.0059 27.2539 82.0059 26.4336H84.5488C84.5853 27.1263 84.7858 27.6777 85.1504 28.0879C85.515 28.4889 85.9616 28.776 86.4902 28.9492C87.0189 29.1133 87.543 29.1953 88.0625 29.1953C88.7552 29.1953 89.334 29.1042 89.7988 28.9219C90.2728 28.7396 90.6328 28.4889 90.8789 28.1699C91.125 27.8509 91.248 27.4863 91.248 27.0762ZM103.293 16.207V18.1484H95.2949V16.207H103.293ZM98.002 12.6113H100.531V27.3359C100.531 27.8372 100.609 28.2155 100.764 28.4707C100.919 28.7259 101.119 28.8945 101.365 28.9766C101.611 29.0586 101.876 29.0996 102.158 29.0996C102.368 29.0996 102.587 29.0814 102.814 29.0449C103.051 28.9993 103.229 28.9629 103.348 28.9355L103.361 31C103.161 31.0638 102.896 31.123 102.568 31.1777C102.249 31.2415 101.862 31.2734 101.406 31.2734C100.786 31.2734 100.217 31.1504 99.6973 30.9043C99.1777 30.6582 98.763 30.248 98.4531 29.6738C98.1523 29.0905 98.002 28.3066 98.002 27.3223V12.6113ZM109.008 16.207V31H106.465V16.207H109.008ZM106.273 12.2832C106.273 11.873 106.396 11.5267 106.643 11.2441C106.898 10.9616 107.271 10.8203 107.764 10.8203C108.247 10.8203 108.616 10.9616 108.871 11.2441C109.135 11.5267 109.268 11.873 109.268 12.2832C109.268 12.6751 109.135 13.0124 108.871 13.2949C108.616 13.5684 108.247 13.7051 107.764 13.7051C107.271 13.7051 106.898 13.5684 106.643 13.2949C106.396 13.0124 106.273 12.6751 106.273 12.2832ZM118.988 29.1953C119.59 29.1953 120.146 29.0723 120.656 28.8262C121.167 28.5801 121.586 28.2428 121.914 27.8145C122.242 27.377 122.429 26.8802 122.475 26.3242H124.881C124.835 27.1992 124.539 28.015 123.992 28.7715C123.454 29.5189 122.748 30.125 121.873 30.5898C120.998 31.0456 120.036 31.2734 118.988 31.2734C117.876 31.2734 116.906 31.0775 116.076 30.6855C115.256 30.2936 114.572 29.7559 114.025 29.0723C113.488 28.3887 113.082 27.6048 112.809 26.7207C112.544 25.8275 112.412 24.8841 112.412 23.8906V23.3164C112.412 22.3229 112.544 21.3841 112.809 20.5C113.082 19.6068 113.488 18.8184 114.025 18.1348C114.572 17.4512 115.256 16.9134 116.076 16.5215C116.906 16.1296 117.876 15.9336 118.988 15.9336C120.146 15.9336 121.158 16.1706 122.023 16.6445C122.889 17.1094 123.568 17.7474 124.061 18.5586C124.562 19.3607 124.835 20.2721 124.881 21.293H122.475C122.429 20.6823 122.256 20.1309 121.955 19.6387C121.663 19.1465 121.262 18.7546 120.752 18.4629C120.251 18.1621 119.663 18.0117 118.988 18.0117C118.214 18.0117 117.562 18.1667 117.033 18.4766C116.514 18.7773 116.099 19.1875 115.789 19.707C115.488 20.2174 115.27 20.7871 115.133 21.416C115.005 22.0358 114.941 22.6693 114.941 23.3164V23.8906C114.941 24.5378 115.005 25.1758 115.133 25.8047C115.26 26.4336 115.475 27.0033 115.775 27.5137C116.085 28.0241 116.5 28.4342 117.02 28.7441C117.548 29.0449 118.204 29.1953 118.988 29.1953ZM135.887 11.0938H138.443L144.965 27.3223L151.473 11.0938H154.043L145.949 31H143.953L135.887 11.0938ZM135.053 11.0938H137.309L137.678 23.2344V31H135.053V11.0938ZM152.607 11.0938H154.863V31H152.238V23.2344L152.607 11.0938ZM167.838 28.4707V20.8555C167.838 20.2721 167.719 19.7663 167.482 19.3379C167.255 18.9004 166.908 18.5632 166.443 18.3262C165.979 18.0892 165.404 17.9707 164.721 17.9707C164.083 17.9707 163.522 18.0801 163.039 18.2988C162.565 18.5176 162.191 18.8047 161.918 19.1602C161.654 19.5156 161.521 19.8984 161.521 20.3086H158.992C158.992 19.7799 159.129 19.2559 159.402 18.7363C159.676 18.2168 160.068 17.7474 160.578 17.3281C161.098 16.8997 161.717 16.5625 162.438 16.3164C163.167 16.0612 163.978 15.9336 164.871 15.9336C165.947 15.9336 166.895 16.1159 167.715 16.4805C168.544 16.8451 169.191 17.3965 169.656 18.1348C170.13 18.8639 170.367 19.7799 170.367 20.8828V27.7734C170.367 28.2656 170.408 28.7897 170.49 29.3457C170.581 29.9017 170.714 30.3802 170.887 30.7812V31H168.248C168.12 30.7083 168.02 30.321 167.947 29.8379C167.874 29.3457 167.838 28.89 167.838 28.4707ZM168.275 22.0312L168.303 23.8086H165.746C165.026 23.8086 164.383 23.8678 163.818 23.9863C163.253 24.0957 162.779 24.2643 162.396 24.4922C162.014 24.7201 161.722 25.0072 161.521 25.3535C161.321 25.6908 161.221 26.0872 161.221 26.543C161.221 27.0078 161.326 27.4316 161.535 27.8145C161.745 28.1973 162.059 28.5026 162.479 28.7305C162.907 28.9492 163.431 29.0586 164.051 29.0586C164.826 29.0586 165.509 28.8945 166.102 28.5664C166.694 28.2383 167.163 27.8372 167.51 27.3633C167.865 26.8893 168.057 26.429 168.084 25.9824L169.164 27.1992C169.1 27.582 168.927 28.0059 168.645 28.4707C168.362 28.9355 167.984 29.3822 167.51 29.8105C167.045 30.2298 166.489 30.5807 165.842 30.8633C165.204 31.1367 164.484 31.2734 163.682 31.2734C162.679 31.2734 161.799 31.0775 161.043 30.6855C160.296 30.2936 159.712 29.7695 159.293 29.1133C158.883 28.4479 158.678 27.7051 158.678 26.8848C158.678 26.0918 158.833 25.3945 159.143 24.793C159.452 24.1823 159.899 23.6764 160.482 23.2754C161.066 22.8652 161.768 22.5553 162.588 22.3457C163.408 22.1361 164.324 22.0312 165.336 22.0312H168.275ZM176.875 18.5312V31H174.346V16.207H176.807L176.875 18.5312ZM181.496 16.125L181.482 18.4766C181.273 18.431 181.072 18.4036 180.881 18.3945C180.699 18.3763 180.489 18.3672 180.252 18.3672C179.669 18.3672 179.154 18.4583 178.707 18.6406C178.26 18.8229 177.882 19.0781 177.572 19.4062C177.262 19.7344 177.016 20.1263 176.834 20.582C176.661 21.0286 176.547 21.5208 176.492 22.0586L175.781 22.4688C175.781 21.5755 175.868 20.737 176.041 19.9531C176.223 19.1693 176.501 18.4766 176.875 17.875C177.249 17.2643 177.723 16.7904 178.297 16.4531C178.88 16.1068 179.573 15.9336 180.375 15.9336C180.557 15.9336 180.767 15.9564 181.004 16.002C181.241 16.0384 181.405 16.0794 181.496 16.125ZM186.377 10V31H183.834V10H186.377ZM195.414 16.207L188.961 23.1113L185.352 26.8574L185.146 24.1641L187.73 21.0742L192.324 16.207H195.414ZM193.104 31L187.826 23.9453L189.139 21.6895L196.084 31H193.104ZM203.891 31.2734C202.861 31.2734 201.926 31.1003 201.088 30.7539C200.258 30.3984 199.543 29.9017 198.941 29.2637C198.349 28.6257 197.893 27.8691 197.574 26.9941C197.255 26.1191 197.096 25.1621 197.096 24.123V23.5488C197.096 22.3457 197.273 21.2747 197.629 20.3359C197.984 19.388 198.467 18.5859 199.078 17.9297C199.689 17.2734 200.382 16.7767 201.156 16.4395C201.931 16.1022 202.733 15.9336 203.562 15.9336C204.62 15.9336 205.531 16.1159 206.297 16.4805C207.072 16.8451 207.705 17.3555 208.197 18.0117C208.689 18.6589 209.054 19.4245 209.291 20.3086C209.528 21.1836 209.646 22.1406 209.646 23.1797V24.3145H198.6V22.25H207.117V22.0586C207.081 21.4023 206.944 20.7643 206.707 20.1445C206.479 19.5247 206.115 19.0143 205.613 18.6133C205.112 18.2122 204.428 18.0117 203.562 18.0117C202.988 18.0117 202.46 18.1348 201.977 18.3809C201.493 18.6178 201.079 18.9733 200.732 19.4473C200.386 19.9212 200.117 20.5 199.926 21.1836C199.734 21.8672 199.639 22.6556 199.639 23.5488V24.123C199.639 24.8249 199.734 25.4857 199.926 26.1055C200.126 26.7161 200.413 27.2539 200.787 27.7188C201.17 28.1836 201.63 28.5482 202.168 28.8125C202.715 29.0768 203.335 29.209 204.027 29.209C204.921 29.209 205.677 29.0267 206.297 28.6621C206.917 28.2975 207.459 27.8099 207.924 27.1992L209.455 28.416C209.136 28.8991 208.73 29.3594 208.238 29.7969C207.746 30.2344 207.14 30.5898 206.42 30.8633C205.709 31.1367 204.866 31.2734 203.891 31.2734ZM215.129 18.5312V31H212.6V16.207H215.061L215.129 18.5312ZM219.75 16.125L219.736 18.4766C219.527 18.431 219.326 18.4036 219.135 18.3945C218.952 18.3763 218.743 18.3672 218.506 18.3672C217.923 18.3672 217.408 18.4583 216.961 18.6406C216.514 18.8229 216.136 19.0781 215.826 19.4062C215.516 19.7344 215.27 20.1263 215.088 20.582C214.915 21.0286 214.801 21.5208 214.746 22.0586L214.035 22.4688C214.035 21.5755 214.122 20.737 214.295 19.9531C214.477 19.1693 214.755 18.4766 215.129 17.875C215.503 17.2643 215.977 16.7904 216.551 16.4531C217.134 16.1068 217.827 15.9336 218.629 15.9336C218.811 15.9336 219.021 15.9564 219.258 16.002C219.495 16.0384 219.659 16.0794 219.75 16.125ZM230.701 27.0762C230.701 26.7116 230.619 26.3743 230.455 26.0645C230.3 25.7454 229.977 25.4583 229.484 25.2031C229.001 24.9388 228.272 24.7109 227.297 24.5195C226.477 24.3464 225.734 24.1413 225.068 23.9043C224.412 23.6673 223.852 23.3802 223.387 23.043C222.931 22.7057 222.58 22.3092 222.334 21.8535C222.088 21.3978 221.965 20.8646 221.965 20.2539C221.965 19.6706 222.092 19.1191 222.348 18.5996C222.612 18.0801 222.981 17.6198 223.455 17.2188C223.938 16.8177 224.517 16.5033 225.191 16.2754C225.866 16.0475 226.618 15.9336 227.447 15.9336C228.632 15.9336 229.644 16.1432 230.482 16.5625C231.321 16.9818 231.964 17.5423 232.41 18.2441C232.857 18.9368 233.08 19.707 233.08 20.5547H230.551C230.551 20.1445 230.428 19.748 230.182 19.3652C229.945 18.9733 229.594 18.6497 229.129 18.3945C228.673 18.1393 228.113 18.0117 227.447 18.0117C226.745 18.0117 226.176 18.1211 225.738 18.3398C225.31 18.5495 224.995 18.8184 224.795 19.1465C224.604 19.4746 224.508 19.821 224.508 20.1855C224.508 20.459 224.553 20.7051 224.645 20.9238C224.745 21.1335 224.918 21.3294 225.164 21.5117C225.41 21.6849 225.757 21.849 226.203 22.0039C226.65 22.1589 227.219 22.3138 227.912 22.4688C229.124 22.7422 230.122 23.0703 230.906 23.4531C231.69 23.8359 232.273 24.3053 232.656 24.8613C233.039 25.4173 233.23 26.0918 233.23 26.8848C233.23 27.5319 233.094 28.1243 232.82 28.6621C232.556 29.1999 232.169 29.6647 231.658 30.0566C231.157 30.4395 230.555 30.7402 229.854 30.959C229.161 31.1686 228.382 31.2734 227.516 31.2734C226.212 31.2734 225.109 31.041 224.207 30.5762C223.305 30.1113 222.621 29.5098 222.156 28.7715C221.691 28.0332 221.459 27.2539 221.459 26.4336H224.002C224.038 27.1263 224.239 27.6777 224.604 28.0879C224.968 28.4889 225.415 28.776 225.943 28.9492C226.472 29.1133 226.996 29.1953 227.516 29.1953C228.208 29.1953 228.787 29.1042 229.252 28.9219C229.726 28.7396 230.086 28.4889 230.332 28.1699C230.578 27.8509 230.701 27.4863 230.701 27.0762Z" fill="#B595FF"/>
<defs>
<clipPath id="clip0_2349_561">
<rect width="35" height="40" fill="white"/>
</clipPath>
</defs>
</svg>
