<svg width="24" height="24" viewBox="0 0 24 24" fill="none" xmlns="http://www.w3.org/2000/svg">
<path d="M6.75 21.9998C6 21.9998 5.35433 21.7455 4.813 21.2368C4.27167 20.7281 4.00067 20.0991 4 19.3498V5.3998C4 4.76647 4.196 4.1998 4.588 3.6998C4.98 3.1998 5.49233 2.88314 6.125 2.7498L16 0.799805V16.7998L6.525 18.6998C6.375 18.7331 6.25 18.8125 6.15 18.9378C6.05 19.0631 6 19.2005 6 19.3498C6 19.5331 6.075 19.6875 6.225 19.8128C6.375 19.9381 6.55 20.0005 6.75 19.9998H18V3.9998H20V21.9998H6.75ZM7 16.5748L9 16.1748V4.2248L7 4.6248V16.5748Z" fill="#2A2A2A"/>
</svg>
