<svg width="24" height="25" viewBox="0 0 24 25" fill="none" xmlns="http://www.w3.org/2000/svg">
<path d="M19.5 2H5.5C3.56695 2 2 3.56695 2 5.5V19.5C2 21.4331 3.56695 23 5.5 23H19.5C21.4331 23 23 21.4331 23 19.5V5.5C23 3.56695 21.4331 2 19.5 2ZM8.65 14.95H7.75645L5.97705 11.7541V14.95H5.15V10.05H6.01695L7.82295 13.3218V10.05H8.65V14.95ZM13.55 14.95H10.05V10.05H13.4625V10.8784H10.9789V11.9649H13.2889V12.7905H10.9789V14.1233H13.55V14.95ZM19.3838 14.95H18.3555L17.4003 11.2865L16.4476 14.95H15.3963L14.25 10.05H15.2426L15.9664 13.4152L16.8435 10.05H17.996L18.8375 13.4726L19.5746 10.05H20.55L19.3838 14.95Z" fill="#B3B3B3"/>
</svg>
