<svg width="24" height="24" viewBox="0 0 24 24" fill="none" xmlns="http://www.w3.org/2000/svg">
<path d="M10 10.5C10 11.328 9.552 12 9 12C8.448 12 8 11.328 8 10.5C8 9.672 8.448 9 9 9C9.552 9 10 9.672 10 10.5ZM16 10.5C16 11.328 15.552 12 15 12C14.448 12 14 11.328 14 10.5C14 9.672 14.448 9 15 9C15.552 9 16 9.672 16 10.5Z" fill="#B595FF"/>
<path fill-rule="evenodd" clip-rule="evenodd" d="M12 1.25C6.042 1.25 1.25 6.219 1.25 12.3V19.723C1.25 21.57 3.162 22.846 4.843 21.981C5.17687 21.8084 5.55144 21.73 5.92651 21.7541C6.30158 21.7782 6.663 21.904 6.972 22.118C7.56822 22.5295 8.27554 22.75 9 22.75C9.72446 22.75 10.4318 22.5295 11.028 22.118L11.381 21.876C11.5627 21.7498 11.7787 21.6821 12 21.6821C12.2213 21.6821 12.4373 21.7498 12.619 21.876L12.972 22.118C13.5682 22.5295 14.2755 22.75 15 22.75C15.7245 22.75 16.4318 22.5295 17.028 22.118C17.3371 21.9038 17.6987 21.7779 18.074 21.7538C18.4492 21.7297 18.824 21.8082 19.158 21.981C20.838 22.846 22.75 21.569 22.75 19.723V12.301C22.75 6.219 17.958 1.25 12 1.25ZM2.75 12.3C2.75 7.005 6.912 2.75 12 2.75C17.088 2.75 21.25 7.005 21.25 12.3V19.723C21.25 20.521 20.46 20.965 19.844 20.647C19.2691 20.3505 18.6245 20.2157 17.979 20.2571C17.3334 20.2985 16.7113 20.5145 16.179 20.882C15.8327 21.122 15.4214 21.2506 15 21.2506C14.5786 21.2506 14.1673 21.122 13.821 20.882L13.468 20.639C13.0364 20.3412 12.5244 20.1817 12 20.1817C11.4756 20.1817 10.9636 20.3412 10.532 20.639L10.179 20.881C9.83267 21.121 9.42135 21.2496 9 21.2496C8.57865 21.2496 8.16733 21.121 7.821 20.881C7.28861 20.5136 6.66642 20.2978 6.0209 20.2566C5.37538 20.2154 4.73079 20.3503 4.156 20.647C3.539 20.965 2.75 20.521 2.75 19.723V12.3Z" fill="#B595FF"/>
</svg>
