<svg width="35" height="36" viewBox="0 0 35 36" fill="none" xmlns="http://www.w3.org/2000/svg">
<path d="M10.7778 24.3613L10.5306 25.2288L11.3972 24.9788L13.9654 24.238L14.0907 24.2018L14.1824 24.109L29.6452 8.46107L29.6473 8.45883C29.861 8.23988 29.98 7.94565 29.9785 7.63971C29.9771 7.33408 29.8556 7.04126 29.6403 6.82438C29.6401 6.82416 29.6399 6.82395 29.6397 6.82374L28.7174 5.89132C28.7169 5.89079 28.7164 5.89026 28.7159 5.88974C28.61 5.78141 28.4838 5.69512 28.3443 5.63587C28.2043 5.57634 28.0537 5.54531 27.9015 5.54459C27.7493 5.54386 27.5985 5.57347 27.4579 5.63166L27.6491 6.09367L27.4579 5.63167C27.3172 5.68986 27.1896 5.77549 27.0824 5.88356L27.0818 5.88423L11.6599 21.4913L11.5698 21.5825L11.5347 21.7057L10.7778 24.3613ZM29.8339 4.73377L29.8364 4.73637L30.7625 5.67408L31.1182 5.32275L30.7625 5.67409C31.8512 6.77645 31.8558 8.54998 30.786 9.63206L30.7859 9.63216L14.944 25.6655L9.58335 27.2093C9.58286 27.2095 9.58236 27.2096 9.58186 27.2097C9.47959 27.2383 9.3727 27.2465 9.26726 27.2339C9.16131 27.2213 9.05888 27.1879 8.96582 27.1357C8.87277 27.0834 8.79091 27.0134 8.72493 26.9295C8.65895 26.8457 8.61013 26.7496 8.58127 26.6469L8.58133 26.6469L8.57919 26.6397C8.53491 26.4907 8.53429 26.3322 8.57738 26.1829L8.57783 26.1813L10.1396 20.7045L25.9401 4.71258C25.9402 4.71245 25.9404 4.71232 25.9405 4.71218C26.1958 4.4552 26.4997 4.25159 26.8345 4.11323C27.1695 3.9748 27.5287 3.90445 27.8911 3.90629C28.2536 3.90812 28.612 3.98211 28.9456 4.12392C29.2782 4.26537 29.5804 4.47332 29.8339 4.73377ZM14.2032 7.39212L14.2033 7.39545C14.204 7.5028 14.1835 7.60924 14.1431 7.70868C14.1026 7.80812 14.043 7.89862 13.9675 7.97498C13.8921 8.05136 13.8023 8.11211 13.7034 8.15376C13.6048 8.19526 13.4991 8.217 13.3921 8.21775H8.15533C6.42695 8.21775 5.03616 9.63429 5.03616 11.3675V27.2721C5.03616 29.0067 6.42677 30.4234 8.15533 30.4234H23.8703C25.5985 30.4234 26.991 29.007 26.991 27.2721V21.9711C26.991 21.5094 27.3591 21.1455 27.8005 21.1455C28.2416 21.1455 28.6101 21.509 28.6101 21.9725V27.2721C28.6101 29.9299 26.4819 32.0746 23.8703 32.0746H8.15533C5.54388 32.0746 3.41699 29.9301 3.41699 27.2721V11.3675C3.41699 8.71111 5.54379 6.5665 8.15533 6.5665H13.3937C13.8351 6.5665 14.2032 6.9304 14.2032 7.39212Z" fill="#B595FF" stroke="#B595FF"/>
</svg>
