<svg width="24" height="25" viewBox="0 0 24 25" fill="none" xmlns="http://www.w3.org/2000/svg">
<path d="M11.5136 2.64196L10.2536 1.88696L10.0136 3.33596C9.6316 5.62396 8.0686 7.74996 6.3446 9.24396C2.9696 12.17 2.2306 15.35 3.2756 17.975C4.2756 20.487 6.8136 22.207 9.3896 22.494L9.9856 22.56C8.5116 21.659 7.5656 19.554 7.8956 17.981C8.2216 16.435 9.3336 14.987 11.4696 13.651L12.5466 12.979L12.9486 14.184C13.1856 14.896 13.5956 15.468 14.0126 16.049C14.2126 16.329 14.4156 16.612 14.6016 16.913C15.2446 17.958 15.4146 19.12 14.9996 20.273C14.6216 21.321 13.9986 22.145 13.1396 22.602L14.1096 22.494C16.5276 22.225 18.3026 21.398 19.4556 20.015C20.5986 18.644 20.9996 16.879 20.9996 15C20.9996 13.25 20.2806 11.446 19.4326 9.94496C18.4386 8.18696 17.1416 6.72696 15.7256 5.31196C15.4806 5.80196 15.4996 5.99996 14.9956 6.78696C14.3411 5.04892 13.1126 3.58654 11.5136 2.64196Z" fill="#2A2A2A"/>
</svg>
