<svg width="24" height="25" viewBox="0 0 24 25" fill="none" xmlns="http://www.w3.org/2000/svg">
<path d="M11.5141 2.64221L10.2541 1.88721L10.0141 3.33621C9.63209 5.62421 8.06909 7.75021 6.34509 9.24421C2.97009 12.1702 2.23109 15.3502 3.27609 17.9752C4.27609 20.4872 6.81409 22.2072 9.39009 22.4942L9.98609 22.5602C8.51209 21.6592 7.56609 19.5542 7.89609 17.9812C8.22209 16.4352 9.33409 14.9872 11.4701 13.6512L12.5471 12.9792L12.9491 14.1842C13.1861 14.8962 13.5961 15.4682 14.0131 16.0492C14.2131 16.3292 14.4161 16.6122 14.6021 16.9132C15.2451 17.9582 15.4151 19.1202 15.0001 20.2732C14.6221 21.3212 13.9991 22.1452 13.1401 22.6022L14.1101 22.4942C16.5281 22.2252 18.3031 21.3982 19.4561 20.0152C20.5991 18.6442 21.0001 16.8792 21.0001 15.0002C21.0001 13.2502 20.2811 11.4462 19.4331 9.94521C18.4391 8.18721 17.1421 6.72721 15.7261 5.31221C15.4811 5.80221 15.5001 6.00021 14.9961 6.78721C14.3416 5.04917 13.1131 3.58678 11.5141 2.64221Z" fill="#2A2A2A"/>
</svg>
