<svg width="26" height="27" viewBox="0 0 26 27" fill="none" xmlns="http://www.w3.org/2000/svg">
<path d="M12.9989 1.14551C12.1297 1.14551 11.4275 1.81582 11.4275 2.64551V3.54551C7.84273 4.23926 5.14188 7.26738 5.14188 10.8955V11.7768C5.14188 13.9799 4.29233 16.108 2.76021 17.758L2.39682 18.1471C1.98433 18.5877 1.88612 19.2205 2.13656 19.7596C2.387 20.2986 2.95173 20.6455 3.57047 20.6455H22.4274C23.0461 20.6455 23.6059 20.2986 23.8613 19.7596C24.1166 19.2205 24.0135 18.5877 23.601 18.1471L23.2376 17.758C21.7055 16.108 20.856 13.9846 20.856 11.7768V10.8955C20.856 7.26738 18.1551 4.23926 14.5703 3.54551V2.64551C14.5703 1.81582 13.8681 1.14551 12.9989 1.14551ZM15.2234 24.2689C15.8127 23.7064 16.1417 22.9424 16.1417 22.1455H12.9989H9.8561C9.8561 22.9424 10.1851 23.7064 10.7744 24.2689C11.3637 24.8314 12.1641 25.1455 12.9989 25.1455C13.8337 25.1455 14.6342 24.8314 15.2234 24.2689Z" fill="white"/>
</svg>
