<svg width="24" height="25" viewBox="0 0 24 25" fill="none" xmlns="http://www.w3.org/2000/svg">
<g clip-path="url(#clip0_212_873)">
<path d="M12 0.5C9.62663 0.5 7.30655 1.20379 5.33316 2.52236C3.35977 3.84094 1.8217 5.71509 0.913451 7.9078C0.00519941 10.1005 -0.232441 12.5133 0.230582 14.8411C0.693605 17.1689 1.83649 19.3071 3.51472 20.9853C5.19295 22.6635 7.33115 23.8064 9.65892 24.2694C11.9867 24.7324 14.3995 24.4948 16.5922 23.5866C18.7849 22.6783 20.6591 21.1402 21.9776 19.1668C23.2962 17.1935 24 14.8734 24 12.5C24 9.3174 22.7357 6.26516 20.4853 4.01472C18.2348 1.76428 15.1826 0.5 12 0.5ZM13.2 19.7H10.8V17.3H13.2V19.7ZM13.2 14.9H10.8V5.3H13.2V14.9Z" fill="#B3B3B3"/>
</g>
<defs>
<clipPath id="clip0_212_873">
<rect width="24" height="24" fill="white" transform="translate(0 0.5)"/>
</clipPath>
</defs>
</svg>
