<svg width="24" height="24" viewBox="0 0 24 24" fill="none" xmlns="http://www.w3.org/2000/svg">
<path fill-rule="evenodd" clip-rule="evenodd" d="M1.25 12.3C1.25 6.219 6.042 1.25 12 1.25C17.958 1.25 22.75 6.219 22.75 12.301V19.723C22.75 21.569 20.838 22.846 19.158 21.981C18.824 21.8082 18.4492 21.7297 18.074 21.7538C17.6987 21.7779 17.3371 21.9038 17.028 22.118C16.4318 22.5295 15.7245 22.75 15 22.75C14.2755 22.75 13.5682 22.5295 12.972 22.118L12.619 21.876C12.4373 21.7498 12.2213 21.6821 12 21.6821C11.7787 21.6821 11.5627 21.7498 11.381 21.876L11.028 22.118C10.4318 22.5295 9.72446 22.75 9 22.75C8.27554 22.75 7.56822 22.5295 6.972 22.118C6.663 21.904 6.30158 21.7782 5.92651 21.7541C5.55144 21.73 5.17687 21.8084 4.843 21.981C3.162 22.846 1.25 21.57 1.25 19.723V12.3ZM9 12C9.552 12 10 11.328 10 10.5C10 9.672 9.552 9 9 9C8.448 9 8 9.672 8 10.5C8 11.328 8.448 12 9 12ZM15 12C15.552 12 16 11.328 16 10.5C16 9.672 15.552 9 15 9C14.448 9 14 9.672 14 10.5C14 11.328 14.448 12 15 12Z" fill="#B595FF"/>
</svg>
