<svg width="24" height="25" viewBox="0 0 24 25" fill="none" xmlns="http://www.w3.org/2000/svg">
<path d="M4.305 11.6248H3.09789L3.95145 12.4783L6.90645 15.4333L6.91268 15.4396L6.91914 15.4456C6.98054 15.5028 7.0298 15.5718 7.06396 15.6485C7.09812 15.7251 7.11648 15.8079 7.11796 15.8918C7.11945 15.9757 7.10401 16.0591 7.07257 16.1369C7.04114 16.2147 6.99435 16.2854 6.935 16.3448C6.87565 16.4041 6.80496 16.4509 6.72714 16.4823C6.64931 16.5138 6.56596 16.5292 6.48204 16.5277C6.39812 16.5263 6.31536 16.5079 6.23869 16.4737C6.16203 16.4396 6.09303 16.3903 6.03581 16.3289L6.02979 16.3225L6.02355 16.3162L1.14855 11.4412L0.707107 10.9998L1.14855 10.5583L6.01641 5.69047C6.13421 5.58332 6.28856 5.52512 6.44796 5.52793C6.60988 5.53079 6.76437 5.59638 6.87888 5.71089C6.99339 5.8254 7.05898 5.97989 7.06184 6.14181C7.06465 6.30121 7.00644 6.45557 6.8993 6.57337L3.95145 9.52122L3.09789 10.3748H4.305H19.125C20.2853 10.3748 21.3981 10.8357 22.2186 11.6562C23.0391 12.4766 23.5 13.5894 23.5 14.7498C23.5 15.9101 23.0391 17.0229 22.2186 17.8434C21.3981 18.6638 20.2853 19.1248 19.125 19.1248H16.125C15.9592 19.1248 15.8003 19.0589 15.6831 18.9417C15.5658 18.8245 15.5 18.6655 15.5 18.4998C15.5 18.334 15.5658 18.175 15.6831 18.0578C15.8003 17.9406 15.9592 17.8748 16.125 17.8748H19.125C19.9538 17.8748 20.7487 17.5455 21.3347 16.9595C21.9208 16.3734 22.25 15.5786 22.25 14.7498C22.25 13.921 21.9208 13.1261 21.3347 12.5401C20.7487 11.954 19.9538 11.6248 19.125 11.6248H4.305Z" fill="#ACFF6C" stroke="#ACFF6C"/>
</svg>
