<svg width="120" height="120" viewBox="0 0 120 120" fill="none" xmlns="http://www.w3.org/2000/svg">
<g clip-path="url(#clip0_15_405)">
<path d="M106.143 98.2699C112.302 90.8655 116.586 82.0878 118.632 72.6793C120.678 63.2708 120.426 53.5084 117.897 44.2178C115.368 34.9273 110.637 26.3819 104.104 19.3047C97.5712 12.2274 89.4283 6.82641 80.3643 3.55863C71.3003 0.290844 61.5819 -0.747617 52.0313 0.531094C42.4807 1.8098 33.3788 5.36807 25.4956 10.9049C17.6124 16.4417 11.1798 23.7941 6.74193 32.3403C2.30409 40.8864 -0.00841712 50.3748 2.30206e-05 60.0028C0.00362839 73.9991 4.93992 87.5471 13.9428 98.2699L13.8571 98.3427C14.1573 98.7027 14.5004 99.0112 14.8092 99.3669C15.1952 99.8083 15.6112 100.224 16.01 100.652C17.2052 101.958 18.4489 103.201 19.7413 104.381C20.1416 104.735 20.5418 105.081 20.9421 105.418C22.3145 106.603 23.7298 107.72 25.188 108.769C25.3767 108.897 25.5483 109.064 25.737 109.197V109.146C35.7815 116.209 47.7644 120 60.0472 120C72.33 120 84.3129 116.209 94.3574 109.146V109.197C94.5461 109.064 94.7134 108.897 94.9064 108.769C96.3646 107.717 97.7799 106.6 99.1523 105.418C99.5526 105.078 99.9528 104.732 100.353 104.381C101.643 103.201 102.886 101.958 104.084 100.652C104.483 100.224 104.895 99.8083 105.285 99.3669C105.59 99.0112 105.937 98.7027 106.237 98.3384L106.143 98.2699ZM60.0429 25.721C63.86 25.721 67.5914 26.852 70.7651 28.9709C73.9389 31.0898 76.4126 34.1014 77.8733 37.625C79.3341 41.1487 79.7162 45.0259 78.9716 48.7666C78.2269 52.5072 76.3888 55.9432 73.6897 58.64C70.9906 61.3369 67.5518 63.1735 63.8081 63.9175C60.0643 64.6616 56.1838 64.2797 52.6573 62.8202C49.1308 61.3606 46.1166 58.889 43.996 55.7179C41.8753 52.5467 40.7434 48.8185 40.7434 45.0045C40.7434 39.8902 42.7767 34.9854 46.3961 31.369C50.0155 27.7527 54.9244 25.721 60.0429 25.721ZM25.7627 98.2699C25.8371 92.6432 28.1256 87.2721 32.1331 83.3185C36.1406 79.3648 41.5448 77.1466 47.1766 77.1437H72.9092C78.541 77.1466 83.9453 79.3648 87.9527 83.3185C91.9602 87.2721 94.2487 92.6432 94.3231 98.2699C84.9171 106.739 72.7045 111.426 60.0429 111.426C47.3813 111.426 35.1687 106.739 25.7627 98.2699Z" fill="#E6E6E6"/>
</g>
<defs>
<clipPath id="clip0_15_405">
<rect width="120" height="120" fill="white"/>
</clipPath>
</defs>
</svg>
