<svg width="24" height="25" viewBox="0 0 24 25" fill="none" xmlns="http://www.w3.org/2000/svg">
<g clip-path="url(#clip0_1922_3896)">
<path d="M6.75 22.0999C6 22.0999 5.35433 21.8456 4.813 21.3369C4.27167 20.8282 4.00067 20.1992 4 19.4499V5.4999C4 4.86657 4.196 4.2999 4.588 3.7999C4.98 3.2999 5.49233 2.98324 6.125 2.8499L16 0.899902V16.8999L6.525 18.7999C6.375 18.8332 6.25 18.9126 6.15 19.0379C6.05 19.1632 6 19.3006 6 19.4499C6 19.6332 6.075 19.7876 6.225 19.9129C6.375 20.0382 6.55 20.1006 6.75 20.0999H18V4.0999H20V22.0999H6.75ZM7 16.6749L9 16.2749V4.3249L7 4.7249V16.6749Z" fill="#B3B3B3"/>
</g>
<defs>
<clipPath id="clip0_1922_3896">
<rect width="24" height="24" fill="white" transform="translate(0 0.100098)"/>
</clipPath>
</defs>
</svg>
