<svg width="24" height="24" viewBox="0 0 24 24" fill="none" xmlns="http://www.w3.org/2000/svg">
<path d="M8.25 6.0002L10.4 3.1252C10.6 2.85853 10.8417 2.65853 11.125 2.5252C11.4083 2.39186 11.7 2.3252 12 2.3252C12.3 2.3252 12.5917 2.39186 12.875 2.5252C13.1583 2.65853 13.4 2.85853 13.6 3.1252L15.75 6.0002H8.25ZM6 10.0002V8.8502C5.13333 8.63353 4.41667 8.17519 3.85 7.47519C3.28333 6.7752 3 5.95853 3 5.0252C3 4.74186 3.096 4.50419 3.288 4.3122C3.48 4.1202 3.71733 4.02453 4 4.0252C4.28267 4.02586 4.52033 4.12186 4.713 4.3132C4.90567 4.50453 5.00133 4.74186 5 5.0252C5 5.55853 5.196 6.0212 5.588 6.4132C5.98 6.8052 6.44233 7.00086 6.975 7.0002H17.025C17.5583 7.0002 18.021 6.80453 18.413 6.4132C18.805 6.02186 19.0007 5.5592 19 5.0252C19 4.74186 19.096 4.50453 19.288 4.3132C19.48 4.12186 19.7173 4.02553 20 4.0242C20.2827 4.02286 20.5203 4.11886 20.713 4.3122C20.9057 4.50553 21.0013 4.74286 21 5.0242C21 5.95753 20.7167 6.7742 20.15 7.4742C19.5833 8.1742 18.8667 8.63286 18 8.8502V10.0002H6ZM4 20.0002V12.8502C3.13333 12.6335 2.41667 12.1752 1.85 11.4752C1.28333 10.7752 1 9.95853 1 9.0252C1 8.74186 1.096 8.50453 1.288 8.3132C1.48 8.12186 1.71733 8.02586 2 8.0252C2.28267 8.02453 2.52033 8.12053 2.713 8.3132C2.90567 8.50586 3.00133 8.7432 3 9.0252C3 9.55853 3.196 10.0212 3.588 10.4132C3.98 10.8052 4.44233 11.0009 4.975 11.0002H19.025C19.5583 11.0002 20.021 10.8045 20.413 10.4132C20.805 10.0219 21.0007 9.5592 21 9.0252C21 8.74186 21.096 8.50453 21.288 8.3132C21.48 8.12186 21.7173 8.02586 22 8.0252C22.2827 8.02453 22.5203 8.12053 22.713 8.3132C22.9057 8.50586 23.0013 8.7432 23 9.0252C23 9.95853 22.7167 10.7752 22.15 11.4752C21.5833 12.1752 20.8667 12.6335 20 12.8502V20.0002C20 20.5502 19.8043 21.0212 19.413 21.4132C19.0217 21.8052 18.5507 22.0009 18 22.0002H14C13.7167 22.0002 13.4793 21.9042 13.288 21.7122C13.0967 21.5202 13.0007 21.2829 13 21.0002V18.0002C13 17.7169 12.904 17.4795 12.712 17.2882C12.52 17.0969 12.2827 17.0009 12 17.0002C11.7173 16.9995 11.48 17.0955 11.288 17.2882C11.096 17.4809 11 17.7182 11 18.0002V21.0002C11 21.2835 10.904 21.5212 10.712 21.7132C10.52 21.9052 10.2827 22.0009 10 22.0002H6C5.45 22.0002 4.97933 21.8045 4.588 21.4132C4.19667 21.0219 4.00067 20.5509 4 20.0002Z" fill="#B3B3B3"/>
</svg>
