<svg width="26" height="25" viewBox="0 0 26 25" fill="none" xmlns="http://www.w3.org/2000/svg">
<path d="M22.75 21.5002L18.0451 17.1572M18.0451 17.1572C18.8499 16.4143 19.4883 15.5324 19.9238 14.5618C20.3594 13.5911 20.5835 12.5508 20.5835 11.5002C20.5835 10.4496 20.3594 9.40929 19.9238 8.43866C19.4883 7.46803 18.8499 6.58609 18.0451 5.84321C17.2403 5.10032 16.2848 4.51103 15.2333 4.10898C14.1818 3.70693 13.0548 3.5 11.9166 3.5C10.7785 3.5 9.65149 3.70693 8.59997 4.10898C7.54846 4.51103 6.59302 5.10032 5.78823 5.84321C4.16287 7.34354 3.24976 9.37842 3.24976 11.5002C3.24976 13.622 4.16287 15.6569 5.78823 17.1572C7.41359 18.6575 9.61804 19.5004 11.9166 19.5004C14.2152 19.5004 16.4197 18.6575 18.0451 17.1572Z" stroke="#2A2A2A" stroke-width="2" stroke-linecap="round" stroke-linejoin="round"/>
</svg>
