<svg width="355" height="122" viewBox="0 0 355 122" fill="none" xmlns="http://www.w3.org/2000/svg">
<g clip-path="url(#clip0_1410_2640)">
<rect width="44" height="43" fill="#B595FF" fill-opacity="0.8"/>
<g clip-path="url(#clip1_1410_2640)">
<g clip-path="url(#clip2_1410_2640)">
<path d="M42.34 19.6401C41.25 22.0101 39.84 24.3001 38.09 26.5001C36.58 28.4201 34.98 30.0501 33.31 31.4401C32.81 31.1101 32.21 30.7601 31.49 30.3901C30.63 29.9401 29.72 29.5101 28.78 29.0901C27.83 28.6801 26.96 28.3301 26.16 28.0401L23.18 31.9301C24.01 32.2801 24.9 32.6901 25.84 33.1501C26.78 33.6101 27.67 34.0901 28.5 34.5901C29.33 35.0901 30.02 35.5401 30.56 35.9601L33.05 32.4001C33.37 32.6101 33.7 32.8401 34.06 33.1301C34.64 33.5801 35.2 34.0301 35.76 34.5001C36.32 34.9601 36.76 35.3701 37.08 35.7201C37.59 35.2701 38.1 34.7801 38.62 34.2701V49.4501H42.65V51.5101H24V56.6901H42.67V65.0001M49.68 21.4701C50.06 22.4001 50.46 23.4301 50.88 24.5701C50.92 24.6801 50.95 24.7801 50.99 24.8801H45.83C46.54 23.7001 47.18 22.5201 47.75 21.3301M48.58 65.0001V56.7001H67.88V51.5201H48.58V48.6401H44.3V47.6301H66.81V43.1201H56.4V40.7201H64.22V37.2201H56.4V34.9601H64.18V31.4001H56.4V29.1401H66.19V24.8701H57.38C57.17 24.2901 56.91 23.6401 56.59 22.9301C56.11 21.8601 55.65 20.8901 55.2 20.0301M50.93 43.1101H44.3V40.7101H50.92V43.1101H50.93ZM50.93 37.2101H44.3V34.9501H50.92V37.2101H50.93ZM50.93 31.4001H44.3V29.1401H50.92V31.4001H50.93Z" stroke="#ACFF6C" stroke-width="1.5" stroke-miterlimit="10"/>
<path d="M28.37 49.9801C29.87 48.3201 31.38 46.6001 32.88 44.8401C34.38 43.0801 35.82 41.3501 37.2 39.6601L34.13 35.8701C33.04 37.0901 31.91 38.3001 30.72 39.5201C29.54 40.7401 28.4 41.8701 27.31 42.9301C26.22 43.9901 25.23 44.9001 24.33 45.6701L28.37 49.9801Z" stroke="#ACFF6C" stroke-width="1.5" stroke-miterlimit="10"/>
<path d="M26.69 23.8204C27.55 24.1704 28.45 24.5804 29.38 25.0404C30.31 25.5004 31.2 25.9904 32.04 26.5004C32.89 27.0104 33.55 27.4904 34.03 27.9404L37.2 23.6204C36.66 23.1704 35.95 22.7204 35.09 22.2804C34.23 21.8304 33.32 21.3904 32.38 20.9604C31.43 20.5304 30.53 20.1704 29.66 19.8804L26.69 23.8204Z" stroke="#ACFF6C" stroke-width="1.5" stroke-miterlimit="10"/>
<path d="M79.62 20.23C78.95 22.57 78.13 24.88 77.17 27.17C76.21 29.46 75.15 31.59 74 33.58C72.85 35.56 71.63 37.31 70.35 38.81C70.64 39.32 70.97 39.98 71.36 40.78C71.74 41.58 72.1 42.38 72.42 43.18C72.74 43.98 72.98 44.6 73.14 45.05C74.04 43.97 74.92 42.77 75.78 41.49V65.26M91.67 20.43V24.13H84.8V29.41H91.66V32.43H83.36V37.71H88.81C88.13 38.6 87.36 39.47 86.5 40.3C84.88 41.88 83.17 43.17 81.39 44.21V31.07C81.51 30.8 81.63 30.54 81.75 30.27C82.98 27.42 84.05 24.61 84.94 21.82M103 20.43V24.13H97.19V20.43M106.16 65.16C107.38 65.16 108.47 65.12 109.45 65.04C110.43 64.96 111.27 64.74 111.97 64.39C112.71 64.01 113.2 63.49 113.46 62.85C113.72 62.21 113.84 61.33 113.84 60.21V40.25H111.25H108.42H93.42C94.01 39.42 94.54 38.57 95.03 37.71H115.52V32.43H108.51V29.4H114.37V24.12H108.51V20.42M103.04 64.35V58.3H108.42V60.17C108.42 60.59 108.21 60.79 107.8 60.79C107.58 60.82 107.14 60.84 106.48 60.84C105.82 60.84 105.19 60.82 104.58 60.79M88.45 65.69C89.63 64.28 90.53 62.67 91.14 60.84C91.42 60 91.65 59.16 91.84 58.3H97.86V64.35M81.4 65.26V44.74C81.65 45.06 81.93 45.42 82.24 45.86C82.67 46.47 83.09 47.08 83.49 47.68C83.89 48.29 84.19 48.77 84.38 49.12C85.31 48.51 86.22 47.81 87.12 47.05V49.64C87.12 50.98 87.05 52.41 86.9 53.91C86.75 55.41 86.45 56.89 85.99 58.35C85.53 59.81 84.78 61.14 83.76 62.36M92.63 44.86H97.86V47.36H92.63V44.86ZM92.42 54.17C92.5 53.24 92.55 52.34 92.58 51.48H97.86V54.17H92.42ZM103.04 54.17V51.48H108.42V54.17H103.04ZM108.42 47.35H103.04V44.85H108.42V47.35ZM97.19 29.4H103V32.42H97.19V29.4Z" stroke="#ACFF6C" stroke-width="1.5" stroke-miterlimit="10"/>
<path d="M133.39 26.7V29.72C132.21 29.79 131.05 29.85 129.92 29.91C130.05 29.06 130.2 28.23 130.32 27.37C130.67 24.91 130.94 22.54 131.14 20.27M141.26 57.23C140.4 56.17 139.29 55.02 137.95 53.75C137.14 52.99 136.28 52.2 135.39 51.4C136.3 49.28 137.01 47.14 137.49 44.99C138.02 42.62 138.36 40.35 138.52 38.17C138.61 36.94 138.67 35.77 138.71 34.65C139.57 34.59 140.44 34.54 141.3 34.48L141.35 29.3C140.49 29.34 139.62 29.39 138.76 29.44V26.7M124.37 65.1C126.99 63.18 129.18 61.11 130.92 58.88C131.5 58.14 132.03 57.39 132.53 56.64C133.13 57.24 133.72 57.83 134.28 58.4C135.58 59.73 136.64 60.92 137.47 61.98M125.47 19.98C125.31 22.12 125.09 24.37 124.82 26.72C124.69 27.87 124.54 29.03 124.38 30.18C122.91 30.25 121.54 30.3 120.29 30.35L120.82 35.82C121.68 35.76 122.58 35.7 123.51 35.64C123.22 37.28 122.92 38.89 122.59 40.4C122.14 42.5 121.69 44.39 121.25 46.09C122.59 47.27 124.03 48.57 125.55 49.98C126.51 50.87 127.46 51.78 128.41 52.68C127.78 53.67 127.07 54.64 126.29 55.6C124.69 57.55 122.69 59.38 120.29 61.07M130.46 35.19C131.41 35.13 132.36 35.06 133.31 35C133.27 35.76 133.23 36.53 133.17 37.35C133.03 39.27 132.72 41.26 132.26 43.33C131.95 44.72 131.51 46.11 130.98 47.5C130.31 46.92 129.64 46.32 128.97 45.75C128.39 45.26 127.84 44.78 127.29 44.31C127.47 43.48 127.65 42.63 127.84 41.74C128.27 39.66 128.67 37.5 129.06 35.28C129.53 35.25 129.98 35.22 130.46 35.19Z" stroke="#ACFF6C" stroke-width="1.5" stroke-miterlimit="10"/>
<path d="M160.85 22.52L159.51 22.86H157.97H141.6V28.04H155.71C154.91 29.28 154.04 30.5 153.07 31.71C152.01 33.04 150.94 34.18 149.85 35.14V39.7H139.67V45.17H149.85V58.66C149.85 59.01 149.78 59.25 149.63 59.38C149.49 59.51 149.21 59.57 148.79 59.57C148.53 59.57 148.09 59.57 147.45 59.57C146.81 59.57 146.08 59.56 145.27 59.55C144.45 59.53 143.63 59.53 142.8 59.53" stroke="#ACFF6C" stroke-width="1.5" stroke-miterlimit="10"/>
<path d="M144.77 64.9999C146.66 65.0299 148.29 64.9899 149.67 64.8799C151.05 64.7699 152.23 64.4899 153.22 64.0399C154.21 63.5899 154.9 62.9699 155.28 62.1699C155.66 61.3699 155.86 60.2299 155.86 58.7599V45.1799H165.51V39.7099H155.86V36.0599C156.39 35.5699 156.92 35.0599 157.44 34.5299C158.85 33.0899 160.18 31.5699 161.42 29.9699C162.67 28.3699 163.77 26.8299 164.73 25.3599" stroke="#ACFF6C" stroke-width="1.5" stroke-miterlimit="10"/>
</g>
</g>
<g clip-path="url(#clip3_1410_2640)">
<g clip-path="url(#clip4_1410_2640)">
<path d="M23.31 120.44C24.81 120.47 26.09 120.41 27.15 120.25C28.21 120.09 29.1 119.8 29.84 119.39C30.58 118.91 31.08 118.28 31.35 117.49C31.62 116.71 31.76 115.66 31.76 114.35V102.61C33.07 102.14 34.39 101.67 35.7 101.19L34.79 96.05C33.77 96.39 32.77 96.72 31.77 97.05V90.14H34.99V84.87H31.77V75.75H26.43V84.87H21.87" stroke="#ACFF6C" stroke-width="1.5" stroke-miterlimit="10"/>
<path d="M22.54 105.89C23.77 105.45 25.08 104.99 26.43 104.51V114.33C26.43 114.65 26.37 114.87 26.26 114.98C26.15 115.09 25.95 115.15 25.66 115.15C25.4 115.15 24.91 115.14 24.17 115.13C23.43 115.11 22.65 115.09 21.82 115.06" stroke="#ACFF6C" stroke-width="1.5" stroke-miterlimit="10"/>
<path d="M21.87 90.1499H26.43V98.7999C24.46 99.4299 22.7 99.9599 21.2 100.37" stroke="#ACFF6C" stroke-width="1.5" stroke-miterlimit="10"/>
<path d="M42.22 89.5699C41.61 90.2099 40.74 90.7499 39.6 91.1999C38.46 91.6499 36.94 92.0299 35.02 92.3499C35.37 92.6699 35.74 93.0899 36.12 93.6199C36.5 94.1499 36.85 94.6899 37.15 95.2499C37.45 95.8099 37.69 96.3099 37.85 96.7599C40.15 96.2799 42.03 95.6699 43.47 94.9399C44.91 94.1999 46.03 93.3199 46.83 92.2799C47.63 91.2399 48.19 90.0499 48.51 88.6999C48.83 87.3599 49.05 85.8499 49.18 84.1899H43.95C43.89 85.3399 43.73 86.3699 43.49 87.2599C43.25 88.1699 42.83 88.9299 42.22 89.5699Z" stroke="#ACFF6C" stroke-width="1.5" stroke-miterlimit="10"/>
<path d="M59.07 87.56H64.69V77.96H36.17V87.8H41.5V82.85H59.07V87.56Z" stroke="#ACFF6C" stroke-width="1.5" stroke-miterlimit="10"/>
<path d="M65.07 99.6499H52.59V94.8999H46.93V99.6499H36.17V104.79H43.97C43.57 105.4 43.14 106 42.67 106.59C41.41 108.17 39.98 109.6 38.4 110.86C36.82 112.12 35.14 113.16 33.38 113.96C33.99 114.47 34.65 115.16 35.37 116.02C36.09 116.88 36.66 117.65 37.07 118.32C38.93 117.26 40.69 115.96 42.35 114.41C44.01 112.86 45.51 111.12 46.84 109.2C46.86 109.16 46.89 109.13 46.91 109.09V120.86H52.57V108.53C52.75 108.78 52.93 109.03 53.12 109.28C54.48 111.06 55.95 112.7 57.54 114.2C59.12 115.7 60.75 116.97 62.41 117.99" stroke="#ACFF6C" stroke-width="1.5" stroke-miterlimit="10"/>
<path d="M66.32 113.48C64.72 112.71 63.14 111.73 61.57 110.53C60 109.33 58.56 108.01 57.25 106.57C56.72 105.98 56.23 105.39 55.77 104.79H65.08" stroke="#ACFF6C" stroke-width="1.5" stroke-miterlimit="10"/>
<path d="M64.78 90.3901C64.4 90.5201 63.92 90.6101 63.34 90.6501C62.76 90.6901 62.24 90.7201 61.76 90.7201C61.57 90.7201 61.28 90.7201 60.9 90.7201C60.52 90.7201 60.09 90.7201 59.63 90.7201C59.17 90.7201 58.75 90.7201 58.38 90.7201C58.01 90.7201 57.73 90.7201 57.54 90.7201C57.16 90.7201 56.9 90.6101 56.77 90.3801C56.64 90.1601 56.58 89.7601 56.58 89.1801V84.1001H51.49V89.1401C51.49 90.7401 51.66 92.0001 51.99 92.9301C52.33 93.8601 52.93 94.5201 53.81 94.9201C54.69 95.3201 55.96 95.5201 57.63 95.5201C57.82 95.5201 58.11 95.5201 58.49 95.5201C58.87 95.5201 59.29 95.5201 59.74 95.5201C60.19 95.5201 60.6 95.5201 60.99 95.5201C61.38 95.5201 61.66 95.5201 61.85 95.5201C62.49 95.5201 63.11 95.5001 63.72 95.4501C64.33 95.4001 64.82 95.3101 65.21 95.1901" stroke="#ACFF6C" stroke-width="1.5" stroke-miterlimit="10"/>
<path d="M115.76 116.84C114.86 116.14 113.74 115.34 112.38 114.46C111.02 113.58 109.6 112.72 108.13 111.87C106.66 111.02 105.3 110.28 104.05 109.64L99.68 112.47C100.96 113.21 102.33 114.03 103.78 114.94C105.23 115.85 106.61 116.76 107.91 117.68C109.21 118.59 110.25 119.4 111.05 120.1" stroke="#ACFF6C" stroke-width="1.5" stroke-miterlimit="10"/>
<path d="M76.31 120.25C77.56 119.61 78.88 118.85 80.27 117.97C81.66 117.09 83.02 116.15 84.35 115.14C85.68 114.13 86.87 113.13 87.93 112.14L82.7 109.98C81.39 111.16 79.75 112.32 77.78 113.46C75.81 114.6 73.88 115.56 72 116.36" stroke="#ACFF6C" stroke-width="1.5" stroke-miterlimit="10"/>
<path d="M73.43 84.4399H90.95V87.3699H72.37V97.3499H77.84V92.1699H88.78C87.84 92.7999 86.89 93.3999 85.95 93.9499C84.96 94.5299 84.09 95.0099 83.33 95.4099C82.58 95.8099 82.01 96.1099 81.63 96.2999C80.89 96.6799 80.23 96.9899 79.64 97.2099C79.05 97.4299 78.5 97.5899 77.98 97.6899C78.14 98.1099 78.31 98.6199 78.48 99.2299C78.66 99.8399 78.83 100.41 79.01 100.96C79.19 101.5 79.31 101.95 79.37 102.3C79.59 102.2 79.91 102.12 80.31 102.04C80.71 101.96 81.27 101.88 81.99 101.8C82.71 101.72 83.72 101.63 85.01 101.54C85.54 101.5 86.15 101.46 86.81 101.42C86.05 101.76 85.32 102.07 84.63 102.36C83.01 103.03 81.82 103.51 81.05 103.8C79.64 104.38 78.43 104.82 77.43 105.12C76.42 105.42 75.45 105.64 74.53 105.77C74.69 106.22 74.87 106.75 75.06 107.35C75.25 107.96 75.43 108.54 75.59 109.1C75.75 109.66 75.85 110.12 75.88 110.47C76.23 110.31 76.66 110.18 77.15 110.09C77.65 109.99 78.32 109.9 79.17 109.8C80.02 109.7 81.17 109.59 82.63 109.46C84.09 109.33 85.93 109.2 88.17 109.05C89.34 108.98 90.66 108.89 92.11 108.79V114.83C92.11 115.09 92.05 115.26 91.92 115.36C91.79 115.46 91.52 115.52 91.1 115.55C90.84 115.55 90.38 115.55 89.71 115.55C89.04 115.55 88.27 115.54 87.41 115.53C86.55 115.51 85.68 115.49 84.82 115.46C85.24 116.2 85.64 117.06 86.04 118.05C86.44 119.04 86.72 119.94 86.88 120.74C88.64 120.74 90.19 120.7 91.54 120.62C92.88 120.54 94.07 120.29 95.09 119.88C96.11 119.46 96.8 118.87 97.15 118.1C97.5 117.33 97.68 116.31 97.68 115.03V108.4C100.57 108.2 103.9 107.99 107.67 107.74C107.84 107.92 108.02 108.11 108.19 108.29C109.25 109.44 110.08 110.47 110.69 111.36L115.06 108.48C114.36 107.55 113.45 106.53 112.35 105.41C111.25 104.29 110.08 103.17 108.85 102.05C107.62 100.93 106.44 99.9099 105.32 98.9799L101.29 101.52C102.16 102.27 103.08 103.11 104.01 104.01L89.03 104.81C90.23 104.35 91.44 103.87 92.65 103.37C97.32 101.43 101.77 99.1999 105.99 96.6699L102.05 93.3599C100.26 94.5399 98.32 95.6999 96.24 96.8199C95.78 97.0699 95.33 97.2899 94.88 97.5299L87 97.8499C87.62 97.5599 88.24 97.2499 88.85 96.9399C91.27 95.7099 93.47 94.3999 95.45 93.0299L94.38 92.1699H109.89V97.3499H115.55V87.3699H97.04V84.4399H114.46" stroke="#ACFF6C" stroke-width="1.5" stroke-miterlimit="10"/>
<path d="M114.47 79.49H97.04V75.75H93.97H90.95V79.49H73.43" stroke="#ACFF6C" stroke-width="1.5" stroke-miterlimit="10"/>
<path d="M125.32 118.76C127.21 117.77 129.07 116.61 130.91 115.28C132.75 113.95 134.53 112.49 136.24 110.89C137.93 109.31 139.51 107.62 140.97 105.83V120.87H147.11V105.6C147.15 105.65 147.19 105.7 147.23 105.75C148.69 107.54 150.26 109.25 151.96 110.86C153.66 112.48 155.42 113.96 157.24 115.3C159.06 116.64 160.9 117.81 162.76 118.8" stroke="#ACFF6C" stroke-width="1.5" stroke-miterlimit="10"/>
<path d="M122.68 100.57H138.25C137.68 101.3 137.07 102.03 136.41 102.75C135.03 104.27 133.51 105.72 131.85 107.09C130.19 108.47 128.43 109.72 126.59 110.86C124.75 112 122.9 112.96 121.05 113.76" stroke="#ACFF6C" stroke-width="1.5" stroke-miterlimit="10"/>
<path d="M126.28 88.71H140.97V94.85H122.68" stroke="#ACFF6C" stroke-width="1.5" stroke-miterlimit="10"/>
<path d="M162.18 82.9998H147.11V75.7998H140.97V82.9998H126.28" stroke="#ACFF6C" stroke-width="1.5" stroke-miterlimit="10"/>
<path d="M165.69 94.85H147.11V88.71H162.18" stroke="#ACFF6C" stroke-width="1.5" stroke-miterlimit="10"/>
<path d="M166.93 113.81C165.11 113.01 163.29 112.04 161.48 110.91C159.67 109.78 157.94 108.52 156.27 107.14C154.61 105.76 153.08 104.32 151.69 102.8C151.01 102.06 150.38 101.31 149.81 100.57H165.69" stroke="#ACFF6C" stroke-width="1.5" stroke-miterlimit="10"/>
<path d="M215.73 118.76V79.9297H197.35V119.48M202.91 119.48V115.98H209.92V118.76M209.92 85.2997V110.55H202.91V85.2997H209.92Z" stroke="#ACFF6C" stroke-width="1.5" stroke-miterlimit="10"/>
<path d="M177.86 75.7998C177.41 78.5198 176.73 81.1798 175.82 83.7698C174.91 86.3598 173.8 88.5398 172.48 90.2998C172.9 90.5198 173.41 90.8398 174.02 91.2598C174.63 91.6798 175.21 92.0898 175.77 92.5098C176.33 92.9298 176.79 93.2898 177.14 93.6098C178.04 92.2698 178.88 90.6898 179.68 88.8798C179.92 88.3298 180.15 87.7498 180.37 87.1798H182.32V93.6098C182.32 93.9898 182.3 94.4098 182.29 94.8098H173.39V100.23H181.9C181.68 101.89 181.32 103.56 180.8 105.25C180.18 107.28 179.22 109.25 177.92 111.15C176.62 113.05 174.87 114.79 172.66 116.36" stroke="#ACFF6C" stroke-width="1.5" stroke-miterlimit="10"/>
<path d="M176.8 120.73C179.2 118.97 181.14 116.96 182.63 114.71C184.02 112.6 185.11 110.39 185.92 108.09C186.25 108.5 186.59 108.92 186.93 109.36C187.63 110.26 188.34 111.17 189.04 112.1C189.74 113.03 190.4 113.93 191.01 114.81C191.62 115.69 192.15 116.48 192.59 117.19L196.48 112.29C196.19 111.94 195.74 111.4 195.11 110.68C194.49 109.96 193.77 109.15 192.97 108.26C192.17 107.36 191.37 106.47 190.57 105.57C189.77 104.67 189.03 103.87 188.34 103.15C188 102.8 187.71 102.49 187.44 102.23C187.55 101.6 187.64 100.97 187.71 100.34C187.71 100.31 187.72 100.28 187.72 100.24H196.04V94.8197H188.1C188.11 94.4297 188.12 94.0397 188.12 93.6697V87.1897H194.89V81.8497H182.19C182.66 80.2197 183.06 78.5797 183.37 76.9097" stroke="#ACFF6C" stroke-width="1.5" stroke-miterlimit="10"/>
<path d="M232.69 120.92C235.03 120.95 237.06 120.9 238.79 120.78C240.52 120.66 241.97 120.38 243.16 119.96C244.38 119.51 245.21 118.86 245.66 117.99C246.11 117.13 246.33 115.88 246.33 114.25V95.5798C247.83 94.6898 249.34 93.7198 250.84 92.6498C253.08 91.0498 255.24 89.3498 257.32 87.5398C259.4 85.7298 261.26 83.9598 262.89 82.2398L258.28 78.7798L256.98 79.1198H255.4H223.58" stroke="#ACFF6C" stroke-width="1.5" stroke-miterlimit="10"/>
<path d="M223.57 84.8198H251.3C250.57 85.4898 249.8 86.1598 248.97 86.8398C247.59 87.9598 246.16 89.0298 244.67 90.0598C243.18 91.0798 241.72 91.9598 240.28 92.6998V114.1C240.28 114.52 240.18 114.8 239.97 114.96C239.76 115.12 239.39 115.2 238.84 115.2C238.49 115.2 237.86 115.2 236.94 115.2C236.02 115.2 235 115.19 233.84 115.18C232.69 115.16 231.54 115.14 230.38 115.11" stroke="#ACFF6C" stroke-width="1.5" stroke-miterlimit="10"/>
<path d="M311.43 77.6699H286.47V100.04V102.63V104.84H307.41C307.33 106.42 307.23 107.79 307.13 108.94C306.95 110.97 306.78 112.49 306.6 113.5C306.42 114.51 306.21 115.17 305.95 115.49C305.76 115.75 305.55 115.91 305.33 115.97C305.11 116.03 304.83 116.07 304.51 116.07C304.19 116.07 303.71 116.06 303.07 116.05C302.43 116.03 301.73 115.99 300.96 115.93M302.26 120.82C303.32 120.82 304.28 120.81 305.14 120.8C306 120.78 306.72 120.73 307.3 120.63C307.94 120.53 308.51 120.37 309 120.13C309.5 119.89 309.97 119.48 310.42 118.91C310.84 118.4 311.18 117.51 311.45 116.25C311.72 114.99 311.96 113.21 312.17 110.92C312.38 108.63 312.55 105.68 312.67 102.06C312.7 101.77 312.73 101.1 312.77 100.04H308.64H307.58H302.3V97.1599H310.08V92.6499H302.3V89.8699H310.08V85.3999H302.3V82.6099H311.42M297.03 92.6499H291.85V89.8699H297.03V92.6499ZM297.03 82.6099V85.3899H291.85V82.6099H297.03ZM291.84 97.1599H297.02V100.04H291.84V97.1599Z" stroke="#ACFF6C" stroke-width="1.5" stroke-miterlimit="10"/>
<path d="M295.06 116.65C295.12 115.31 295.05 113.72 294.84 111.9C294.63 110.08 294.34 108.38 293.95 106.81L290.21 107.43C290.56 109 290.82 110.7 290.98 112.54C291.14 114.38 291.17 115.96 291.08 117.27" stroke="#ACFF6C" stroke-width="1.5" stroke-miterlimit="10"/>
<path d="M274.99 111.56V107.58H283.77V80.02H274.99H272.78H269.9V111.56M278.59 85.35V102.29H274.99V85.35H278.59Z" stroke="#ACFF6C" stroke-width="1.5" stroke-miterlimit="10"/>
<path d="M285.6 119.33C286.27 118.37 286.83 117.25 287.28 115.97C287.73 114.69 288.1 113.33 288.41 111.89C288.71 110.45 288.96 109.04 289.15 107.67L284.93 106.47C284.74 107.75 284.49 109.05 284.19 110.38C283.89 111.71 283.51 112.97 283.06 114.17C282.61 115.37 282.07 116.42 281.43 117.31" stroke="#ACFF6C" stroke-width="1.5" stroke-miterlimit="10"/>
<path d="M301.35 114.44C301.19 113.32 300.89 111.98 300.46 110.41C300.03 108.84 299.52 107.4 298.95 106.09L295.49 107.1C296.03 108.41 296.51 109.87 296.93 111.47C297.35 113.07 297.59 114.45 297.65 115.6" stroke="#ACFF6C" stroke-width="1.5" stroke-miterlimit="10"/>
<path d="M306.63 111.89C306.41 110.99 306.04 109.92 305.53 108.67C305.02 107.42 304.46 106.3 303.85 105.31L300.78 106.37C301.32 107.43 301.84 108.58 302.34 109.83C302.84 111.08 303.18 112.17 303.37 113.09" stroke="#ACFF6C" stroke-width="1.5" stroke-miterlimit="10"/>
<path d="M340.85 108.49C339.63 108.49 338.63 108.89 337.83 109.69C337.03 110.49 336.63 111.51 336.63 112.76C336.63 113.98 337.03 114.98 337.83 115.78C338.63 116.58 339.64 116.98 340.85 116.98C342.07 116.98 343.07 116.58 343.87 115.78C344.67 114.98 345.07 113.97 345.07 112.76C345.07 111.51 344.67 110.49 343.87 109.69C343.08 108.89 342.07 108.49 340.85 108.49Z" stroke="#ACFF6C" stroke-width="1.5" stroke-miterlimit="10"/>
<path d="M333.17 89.5701C334.35 88.3201 335.55 87.3801 336.77 86.7401C337.99 86.1001 339.33 85.7801 340.8 85.7801C342.08 85.7801 343.18 85.9601 344.09 86.3101C345 86.6601 345.7 87.1701 346.18 87.8501C346.66 88.5301 346.9 89.3401 346.9 90.3001C346.9 91.0701 346.66 91.7701 346.18 92.4101C345.7 93.0501 345.08 93.6701 344.33 94.2801C343.58 94.8901 342.78 95.5101 341.93 96.1501C341.08 96.7901 340.31 97.4901 339.63 98.2601C338.94 99.0301 338.41 99.8901 338.05 100.85C337.68 101.81 337.58 102.93 337.74 104.21H343.93C343.83 103.09 343.99 102.11 344.41 101.28C344.83 100.45 345.4 99.7001 346.14 99.0201C346.88 98.3501 347.68 97.7001 348.54 97.0801C349.4 96.4601 350.23 95.8001 351.01 95.1101C351.79 94.4201 352.43 93.6401 352.93 92.7601C353.43 91.8801 353.67 90.8501 353.67 89.6601C353.67 87.5201 353.15 85.7301 352.11 84.3101C351.07 82.8901 349.65 81.8201 347.84 81.1201C346.03 80.4201 343.96 80.0601 341.62 80.0601C339.09 80.0601 336.78 80.6001 334.68 81.6701C332.58 82.7401 330.77 84.1601 329.23 85.9201" stroke="#ACFF6C" stroke-width="1.5" stroke-miterlimit="10"/>
</g>
</g>
</g>
<defs>
<clipPath id="clip0_1410_2640">
<rect width="355" height="122" fill="white"/>
</clipPath>
<clipPath id="clip1_1410_2640">
<rect width="145" height="48" fill="white" transform="translate(22 19)"/>
</clipPath>
<clipPath id="clip2_1410_2640">
<rect width="146" height="49" fill="white" transform="translate(21 18)"/>
</clipPath>
<clipPath id="clip3_1410_2640">
<rect width="334" height="47" fill="white" transform="translate(21 75)"/>
</clipPath>
<clipPath id="clip4_1410_2640">
<rect width="333.42" height="46.68" fill="white" transform="translate(21 75)"/>
</clipPath>
</defs>
</svg>
