<svg width="24" height="25" viewBox="0 0 24 25" fill="none" xmlns="http://www.w3.org/2000/svg">
<path fill-rule="evenodd" clip-rule="evenodd" d="M6 3.5C5.20435 3.5 4.44129 3.81607 3.87868 4.37868C3.31607 4.94129 3 5.70435 3 6.5V18.5C3 19.2956 3.31607 20.0587 3.87868 20.6213C4.44129 21.1839 5.20435 21.5 6 21.5H18C18.7956 21.5 19.5587 21.1839 20.1213 20.6213C20.6839 20.0587 21 19.2956 21 18.5V6.5C21 5.70435 20.6839 4.94129 20.1213 4.37868C19.5587 3.81607 18.7956 3.5 18 3.5H6ZM10 8.5C10 8.23478 10.1054 7.98043 10.2929 7.79289C10.4804 7.60536 10.7348 7.5 11 7.5H17C17.2652 7.5 17.5196 7.60536 17.7071 7.79289C17.8946 7.98043 18 8.23478 18 8.5C18 8.76522 17.8946 9.01957 17.7071 9.20711C17.5196 9.39464 17.2652 9.5 17 9.5H11C10.7348 9.5 10.4804 9.39464 10.2929 9.20711C10.1054 9.01957 10 8.76522 10 8.5ZM10 12.5C10 12.2348 10.1054 11.9804 10.2929 11.7929C10.4804 11.6054 10.7348 11.5 11 11.5H17C17.2652 11.5 17.5196 11.6054 17.7071 11.7929C17.8946 11.9804 18 12.2348 18 12.5C18 12.7652 17.8946 13.0196 17.7071 13.2071C17.5196 13.3946 17.2652 13.5 17 13.5H11C10.7348 13.5 10.4804 13.3946 10.2929 13.2071C10.1054 13.0196 10 12.7652 10 12.5ZM10 16.5C10 16.2348 10.1054 15.9804 10.2929 15.7929C10.4804 15.6054 10.7348 15.5 11 15.5H17C17.2652 15.5 17.5196 15.6054 17.7071 15.7929C17.8946 15.9804 18 16.2348 18 16.5C18 16.7652 17.8946 17.0196 17.7071 17.2071C17.5196 17.3946 17.2652 17.5 17 17.5H11C10.7348 17.5 10.4804 17.3946 10.2929 17.2071C10.1054 17.0196 10 16.7652 10 16.5ZM7 7.5C6.73478 7.5 6.48043 7.60536 6.29289 7.79289C6.10536 7.98043 6 8.23478 6 8.5C6 8.76522 6.10536 9.01957 6.29289 9.20711C6.48043 9.39464 6.73478 9.5 7 9.5C7.26522 9.5 7.52057 9.39464 7.70811 9.20711C7.89564 9.01957 8.001 8.76522 8.001 8.5C8.001 8.23478 7.89564 7.98043 7.70811 7.79289C7.52057 7.60536 7.26522 7.5 7 7.5ZM6 12.5C6 12.2348 6.10536 11.9804 6.29289 11.7929C6.48043 11.6054 6.73478 11.5 7 11.5C7.26522 11.5 7.52057 11.6054 7.70811 11.7929C7.89564 11.9804 8.001 12.2348 8.001 12.5C8.001 12.7652 7.89564 13.0196 7.70811 13.2071C7.52057 13.3946 7.26622 13.5 7.001 13.5C6.73578 13.5 6.48043 13.3946 6.29289 13.2071C6.10536 13.0196 6 12.7652 6 12.5ZM7 15.5C6.73478 15.5 6.48043 15.6054 6.29289 15.7929C6.10536 15.9804 6 16.2348 6 16.5C6 16.7652 6.10536 17.0196 6.29289 17.2071C6.48043 17.3946 6.73478 17.5 7 17.5C7.26522 17.5 7.52057 17.3946 7.70811 17.2071C7.89564 17.0196 8.001 16.7652 8.001 16.5C8.001 16.2348 7.89564 15.9804 7.70811 15.7929C7.52057 15.6054 7.26522 15.5 7 15.5Z" fill="#B3B3B3"/>
</svg>
