<svg width="32" height="33" viewBox="0 0 32 33" fill="none" xmlns="http://www.w3.org/2000/svg">
<path fill-rule="evenodd" clip-rule="evenodd" d="M16 2.81201C8.63602 2.81201 2.66669 8.78135 2.66669 16.1453C2.66669 23.5093 8.63602 29.4787 16 29.4787C23.364 29.4787 29.3334 23.5093 29.3334 16.1453C29.3334 8.78135 23.364 2.81201 16 2.81201ZM11.3334 12.812C11.3334 12.1992 11.4541 11.5923 11.6886 11.0262C11.9231 10.46 12.2668 9.94552 12.7002 9.51218C13.1335 9.07884 13.648 8.7351 14.2142 8.50057C14.7804 8.26605 15.3872 8.14535 16 8.14535C16.6129 8.14535 17.2197 8.26605 17.7859 8.50057C18.3521 8.7351 18.8665 9.07884 19.2999 9.51218C19.7332 9.94552 20.0769 10.46 20.3115 11.0262C20.546 11.5923 20.6667 12.1992 20.6667 12.812C20.6667 14.0497 20.175 15.2367 19.2999 16.1118C18.4247 16.987 17.2377 17.4787 16 17.4787C14.7623 17.4787 13.5754 16.987 12.7002 16.1118C11.825 15.2367 11.3334 14.0497 11.3334 12.812ZM24.344 22.7907C23.3456 24.0458 22.0767 25.0593 20.6319 25.7556C19.1872 26.4519 17.6038 26.813 16 26.812C14.3962 26.813 12.8129 26.4519 11.3681 25.7556C9.92335 25.0593 8.65443 24.0458 7.65602 22.7907C9.81735 21.24 12.7667 20.1453 16 20.1453C19.2334 20.1453 22.1827 21.24 24.344 22.7907Z" fill="#B595FF"/>
</svg>
