<svg width="422" height="123" viewBox="0 0 422 123" fill="none" xmlns="http://www.w3.org/2000/svg">
<g clip-path="url(#clip0_2_1000)">
<path d="M341.05 101.58C339.81 102.84 338.52 104.04 337.2 105.18C335.91 106.29 334.47 107.47 333.24 108.28L339.41 114.77C340.77 113.03 341.74 111.49 342.77 109.82C343.77 108.17 344.71 106.5 345.56 104.79C347.29 101.39 348.72 97.8799 349.85 94.3199L347.95 93.3899C345.86 96.3299 343.55 99.0599 341.05 101.58Z" fill="#ACFF6C"/>
<path d="M381.54 101.91C378.67 99.4099 375.61 97.1599 372.44 95.1899L371.07 96.7999C373.41 99.5599 375.5 102.46 377.33 105.5C378.25 107.01 379.1 108.55 379.89 110.11C380.65 111.63 381.44 113.32 381.93 114.71L389.72 110.31C388.37 108.57 387.11 107.25 385.74 105.84C384.38 104.47 382.99 103.15 381.54 101.91Z" fill="#ACFF6C"/>
<path d="M331.9 66.0199C330.36 64.6199 328.79 63.2699 327.18 61.9699C326.34 61.2899 325.46 60.6699 324.6 60.0199V49.9699H333.68V47.8599L329.79 43.3699L325.9 47.8599H324.6V35.6199L316.15 29.8799V47.8599H306.41V49.9699H316.15V53.0899C316.05 53.7999 315.95 54.5199 315.82 55.2199C315.13 58.9399 314.04 62.4799 312.46 65.8399C310.89 69.2699 309.04 72.5399 306.99 75.7099C304.96 78.8399 302.67 81.9999 300.37 84.7099L307.57 90.0299C309.82 86.3899 311.63 82.8799 313.34 79.1599C314.38 76.8899 315.32 74.5599 316.16 72.1999V116.21L324.61 110.47V67.9799C325.19 68.8699 325.8 69.7399 326.35 70.6499C327.34 72.2899 328.35 74.0399 329.14 75.6199L336.47 70.4799C334.91 68.8299 333.46 67.4499 331.9 66.0199Z" fill="#ACFF6C"/>
<path d="M386.38 44.8499L377.93 39.1099V46.8099H372.81V43.4299L364.36 37.6899V46.8099H359.24V43.4299L350.79 37.6899V46.8099H343.08L336.52 42.3599V64.9899V67.0999V72.7299L344.8 67.0999H377.92V69.4799L386.37 63.7399V44.8499H386.38ZM377.93 64.9799H344.98V48.9199H350.8V64.8399L359.25 59.0999V48.9199H364.37V64.8399L372.82 59.0999V48.9199H377.94V64.9799H377.93Z" fill="#ACFF6C"/>
<path d="M388.45 35.45H388.44L384.55 30.96L380.66 35.45H334.58V37.56H388.45V35.45Z" fill="#ACFF6C"/>
<path d="M377.93 73.97H338.47V76.08H385.72V73.97H385.71L381.82 69.48L377.93 73.97Z" fill="#ACFF6C"/>
<path d="M421.97 86.3201L418.08 81.8301L414.19 86.3201H334.4V88.4301H356.1V118.85L364.55 113.11V94.1701L356.11 88.4301H421.97V86.3201Z" fill="#ACFF6C"/>
<path d="M257.78 64.13C257.66 63.58 257.58 63.42 257.47 63.12C257.37 62.84 257.26 62.61 257.16 62.36C256.94 61.88 256.72 61.42 256.48 61C256.01 60.13 255.49 59.33 254.96 58.56C253.88 57.03 252.68 55.67 251.43 54.41C250.18 53.15 248.84 52.03 247.48 50.99C246.86 50.52 246.23 50.08 245.6 49.66C246.07 47.52 246.46 45.36 246.68 43.19C247.04 40.34 247.06 37.46 247.01 34.64L244.6 34.46C244.01 37.11 243.37 39.72 242.42 42.22C241.53 44.74 240.45 47.17 239.22 49.51C238.01 51.85 236.65 54.11 235.17 56.25C234.43 57.32 233.66 58.36 232.87 59.37C232.1 60.33 231.2 61.42 230.49 62.1L238.64 68.32C239.56 66.79 240.15 65.55 240.81 64.16C241.43 62.8 242.01 61.44 242.54 60.07C243.37 57.92 244.06 55.73 244.66 53.52C244.68 53.55 244.7 53.57 244.72 53.6C245.56 54.92 246.34 56.26 246.97 57.64C247.6 59.01 248.13 60.4 248.5 61.77C248.67 62.45 248.83 63.13 248.91 63.78C248.96 64.11 248.98 64.42 249 64.72C249 64.86 249.01 65.02 249 65.14C249 65.18 248.99 65.26 248.99 65.31L257.78 64.13Z" fill="#ACFF6C"/>
<path d="M248.98 65.3101L248.93 65.3201C248.96 65.3901 248.97 65.3601 248.98 65.3101Z" fill="#ACFF6C"/>
<path d="M295.9 62.36C295.68 61.88 295.46 61.42 295.22 61C294.75 60.13 294.23 59.33 293.7 58.56C292.62 57.03 291.42 55.67 290.17 54.41C288.92 53.15 287.58 52.03 286.22 50.99C285.6 50.52 284.97 50.08 284.34 49.66C284.81 47.52 285.2 45.36 285.42 43.19C285.78 40.34 285.8 37.46 285.75 34.64L283.34 34.46C282.75 37.11 282.11 39.72 281.16 42.22C280.27 44.74 279.19 47.17 277.96 49.51C276.75 51.85 275.39 54.11 273.91 56.25C273.17 57.32 272.4 58.36 271.61 59.37C270.84 60.33 269.94 61.42 269.23 62.1L277.38 68.32C278.3 66.79 278.89 65.55 279.55 64.16C280.17 62.8 280.75 61.44 281.28 60.07C282.11 57.92 282.8 55.73 283.4 53.52C283.42 53.55 283.44 53.57 283.46 53.6C284.3 54.92 285.08 56.26 285.71 57.64C286.34 59.01 286.87 60.4 287.24 61.77C287.41 62.45 287.57 63.13 287.65 63.78C287.7 64.11 287.72 64.42 287.74 64.72C287.74 64.86 287.75 65.02 287.74 65.14C287.74 65.18 287.73 65.26 287.73 65.31L296.53 64.13C296.41 63.58 296.33 63.42 296.22 63.12C296.12 62.84 296.01 62.61 295.9 62.36Z" fill="#ACFF6C"/>
<path d="M287.72 65.3101L287.67 65.3201C287.7 65.3901 287.71 65.3601 287.72 65.3101Z" fill="#ACFF6C"/>
<path d="M296.46 91.97L292.57 87.48L288.68 91.97H267.53V76.69H293.55V74.58L289.66 70.09L285.77 74.58H267.53V35.63L259.08 29.89V74.58H233.05V76.69H259.08V91.97H230.12V25.18H296.4V23.07L292.51 18.57L288.62 23.07H266.23V19.48L257.78 13.74V23.07H230.12V22.86L221.67 17.12V23.07V25.18V109.63L230.12 103.89V94.08H296.46V91.98V91.97Z" fill="#ACFF6C"/>
<path d="M156.12 82.36L162.41 77.9499C161.73 79.2699 161.02 80.57 160.28 81.8499C158.98 84.0799 157.55 86.39 156.15 88.33L164.81 93.1299C165.96 90.3199 166.81 87.7299 167.64 85C168.45 82.2999 169.15 79.57 169.74 76.82C170.89 71.33 171.56 65.68 171.21 60.09L168.88 59.99C167.98 65.19 166.16 70.15 163.93 74.8899C163.63 75.52 163.31 76.13 163 76.75C161.63 75.31 160.3 74.0299 158.9 72.75C157.36 71.35 155.79 69.9999 154.18 68.6999C152.84 67.6099 151.45 66.5899 150.05 65.5899V58.63H163.67V56.52L159.78 52.0299L155.89 56.52H150.05V45.1899L141.6 39.45V56.52H129.74V58.63H141.6V65.36C141.51 65.53 141.43 65.7 141.34 65.87C139.51 69.18 137.36 72.1999 134.79 74.8799C132.21 77.6399 129.43 80.15 126.47 82.51C123.55 84.84 120.38 87.1099 117.34 88.9499L122.48 96.2799C125.77 93.5399 128.59 90.78 131.39 87.79C134.15 84.83 136.76 81.66 139.06 78.32C139.98 77.02 140.81 75.65 141.59 74.26V122.17L150.04 116.43V72.37C150.07 72.41 150.1 72.4499 150.13 72.4899C151.24 74.0999 152.31 75.7299 153.32 77.3899C154.33 79.0299 155.34 80.7799 156.12 82.36Z" fill="#ACFF6C"/>
<path d="M208.7 78.3701C206.55 74.8401 204.16 71.4601 201.54 68.3201L199.75 69.4501C201.34 73.0801 202.61 76.7901 203.63 80.5701C204.14 82.4601 204.6 84.3501 204.99 86.2601C205.37 88.1401 205.74 90.1201 205.95 91.8801L214.58 89.5001C213.68 87.4301 212.78 85.6401 211.79 83.7701C210.81 81.9401 209.78 80.1401 208.7 78.3701Z" fill="#ACFF6C"/>
<path d="M185.65 47.8099C186.94 49.2299 188.27 50.7499 189.35 52.1499L195.55 45.6899C193.72 44.3699 192.02 43.2899 190.22 42.1999C188.44 41.1199 186.63 40.0999 184.8 39.1399C181.15 37.2099 177.37 35.5199 173.5 34.1699L172.54 36.0499C175.76 38.3499 178.76 40.8899 181.56 43.6199C182.97 44.9799 184.34 46.3699 185.65 47.8099Z" fill="#ACFF6C"/>
<path d="M198 107.22H182.74V92.72C185.83 89 188.73 85.1 191.24 80.89C195.34 74.1 198.1 66.89 200.46 59.64C202.76 52.36 204.57 45.02 205.91 37.52L203.25 36.97C201.3 44.11 198.85 51.19 195.99 58C193.09 64.78 189.8 71.42 185.57 77.14C184.68 78.35 183.72 79.52 182.74 80.68V53.02L174.29 47.28V89.43C173.07 90.55 171.84 91.66 170.59 92.74C165.1 97.46 159.11 101.95 153.19 105.8L159.84 115.18C165.03 110.98 169.75 106.65 174.29 102.03V113.82L180.88 109.34H198V114.03L206.45 108.29V96.92L198 91.18V107.22Z" fill="#ACFF6C"/>
<path d="M163.68 37.24L159.79 32.75L155.9 37.24H129.75V39.35H163.68V37.24Z" fill="#ACFF6C"/>
<path d="M61.32 54.0499C59.76 52.8499 58.16 51.7099 56.52 50.6099V46.2699C56.99 45.6899 57.47 45.1199 57.92 44.5199C59.57 42.2799 60.96 39.8499 62.15 37.3999C64.37 32.7399 65.88 27.9399 66.66 22.9299H66.99V20.7499H66.97L62.75 16.1399L58.53 20.7499H55.86V15.7999L46.64 9.87988V20.7499H0V22.9299H64.12C62.69 27.2799 60.61 31.5099 58.05 35.2999C56.84 37.0699 55.51 38.7199 54.07 40.2899L47.31 35.9499V46.8999C43.58 50.1999 39.62 53.3599 35.62 56.4499C31.44 59.6699 27.13 62.8499 22.85 65.8899L29.05 73.0199C33.18 69.4599 37.16 65.8999 41.11 62.2199C43.2 60.2599 45.28 58.2699 47.32 56.2599V102.97L56.54 97.0499V57.4499C56.67 57.6199 56.81 57.7799 56.93 57.9499C58.15 59.6099 59.31 61.2899 60.41 62.9999C61.49 64.6899 62.59 66.4899 63.45 68.1199L71.45 62.8199C69.77 61.1199 68.18 59.6899 66.49 58.2199C64.79 56.7899 63.07 55.3899 61.32 54.0499Z" fill="#ACFF6C"/>
<path d="M122.2 65.53V18.46L112.98 12.54V18.89H101.8V5.92L92.58 0V18.9H81.19V18.47L71.97 12.55V71.45L81.19 65.53V65.1H92.57V97.77L101.79 91.85V65.1H112.97V71.45L122.2 65.53ZM92.58 62.92H81.19V44.96H92.57V62.92H92.58ZM92.58 42.78H81.19V21.07H92.57V42.78H92.58ZM101.79 21.07H112.97V42.78H101.79V21.07ZM101.79 62.92V44.96H112.97V62.92H101.79Z" fill="#ACFF6C"/>
</g>
<defs>
<clipPath id="clip0_2_1000">
<rect width="421.97" height="122.18" fill="white"/>
</clipPath>
</defs>
</svg>
