<svg width="327" height="263" viewBox="0 0 327 263" fill="none" xmlns="http://www.w3.org/2000/svg">
<g style="mix-blend-mode:exclusion">
<g clip-path="url(#clip0_2510_7139)">
<path d="M70.3144 131.63C70.8892 128.851 71.7759 126.194 73.0238 123.724C74.2882 121.246 75.8892 118.955 77.8021 116.956C79.7151 114.949 81.9236 113.227 84.3456 111.83C86.7677 110.432 89.3949 109.368 92.1782 108.58H92.1946C92.1946 108.58 92.9089 105.866 94.321 104.436C95.7332 102.998 95.4212 100 95.4212 100C95.4212 100 94.9039 101.909 93.9516 102.429C92.7118 103.112 90.2652 103.031 89.6166 105.712C89.3374 106.857 89.6002 107.523 89.8875 107.913C87.6297 108.222 85.3966 108.905 83.3112 109.888C80.5525 111.188 78.0402 113.008 75.9466 115.226C73.853 117.444 72.1535 120.027 71.0123 122.83C70.4294 124.244 69.986 125.715 69.6905 127.202C68.6888 127.315 67.1453 127.722 66.7184 129.095C66.1765 130.882 63.5 131.719 63.5 131.719H70.3062L70.3144 131.63Z" fill="#ACFF6C"/>
<path d="M99.7972 108.58H99.8136C102.597 109.368 105.224 110.432 107.646 111.83C110.068 113.227 112.277 114.958 114.19 116.956C116.111 118.955 117.704 121.246 118.968 123.724C120.224 126.194 121.103 128.851 121.677 131.63L121.686 131.719H128.492C128.492 131.719 125.815 130.882 125.265 129.095C124.846 127.722 123.295 127.315 122.293 127.202C121.998 125.715 121.554 124.244 120.971 122.83C119.83 120.027 118.131 117.444 116.037 115.226C113.943 113.008 111.423 111.18 108.672 109.888C106.587 108.905 104.362 108.222 102.096 107.913C102.392 107.523 102.646 106.857 102.367 105.712C101.718 103.031 99.28 103.104 98.032 102.429C97.096 101.909 96.587 100 96.587 100C96.587 100 96.2668 102.998 97.679 104.436C99.0829 105.866 99.7972 108.58 99.7972 108.58Z" fill="#ACFF6C"/>
<path d="M95.8974 128.924L94.2389 132.036L92.3095 133.352L94.2389 134.628L95.8974 138.852L97.564 134.628L99.4852 133.352L97.564 132.036L95.8974 128.924Z" fill="#ACFF6C"/>
<path d="M89.8054 165.697V166.623L90.6182 167.094L91.431 166.623V165.697L90.6182 165.233L89.8054 165.697Z" fill="#ACFF6C"/>
<path d="M100.191 165.697V166.623L101.004 167.094L101.825 166.623V165.697L101.004 165.233L100.191 165.697Z" fill="#ACFF6C"/>
<path d="M121.694 134.408L121.686 134.498C121.111 137.276 120.224 139.933 118.976 142.403C117.712 144.881 116.111 147.172 114.198 149.171C112.285 151.178 110.076 152.9 107.654 154.297C106.858 154.761 106.029 155.175 105.183 155.565C104.814 155.435 104.461 155.289 104.124 155.126C104.083 155.11 104.042 155.086 104.001 155.069C103.656 154.899 103.328 154.704 103.032 154.492C102.999 154.468 102.966 154.452 102.933 154.427C102.695 154.257 102.474 154.062 102.277 153.859C102.244 153.826 102.211 153.786 102.17 153.753C101.973 153.542 101.8 153.323 101.645 153.079C101.62 153.038 101.595 152.998 101.571 152.957C101.423 152.705 101.283 152.429 101.177 152.136C101.168 152.104 101.152 152.063 101.144 152.031C101.037 151.714 100.955 151.381 100.897 151.015C100.15 145.734 102.761 138.666 107.646 138.666C109.658 138.666 109.986 133.108 113.106 132.986C113.237 132.978 113.303 132.978 113.352 132.97C113.377 132.97 113.385 132.97 113.393 132.962C113.401 132.962 113.41 132.962 113.41 132.962H113.401C113.385 132.954 113.319 132.954 113.188 132.946C113.155 132.946 113.139 132.946 113.106 132.946C109.978 132.824 109.493 128.168 107.646 128.168C99.6741 128.168 96.0862 108.076 95.9959 107.491C95.9056 108.076 92.1289 128.168 84.3456 128.168C82.408 128.168 82.0304 132.824 78.9105 132.946C78.8777 132.946 78.8612 132.946 78.8284 132.946C78.697 132.954 78.6314 132.954 78.6149 132.962C78.6067 132.962 78.6067 132.962 78.6067 132.962C78.6067 132.962 78.6149 132.962 78.6232 132.962C78.6314 132.962 78.6396 132.962 78.6642 132.97C78.7135 132.978 78.7874 132.978 78.9105 132.986C82.0386 133.108 82.3013 138.666 84.3456 138.666C89.2307 138.666 91.8333 145.734 91.0944 151.015C91.0452 151.381 90.9548 151.714 90.8481 152.031C90.8399 152.063 90.8317 152.104 90.8153 152.136C90.7085 152.429 90.5772 152.705 90.4212 152.957C90.3966 152.998 90.3719 153.038 90.3473 153.079C90.1913 153.323 90.0189 153.55 89.8218 153.753C89.789 153.786 89.7562 153.826 89.7151 153.859C89.5099 154.062 89.2964 154.257 89.0583 154.427C89.0255 154.452 88.9926 154.468 88.9598 154.492C88.6642 154.704 88.3358 154.891 87.991 155.069C87.9499 155.086 87.9089 155.11 87.8678 155.126C87.5312 155.289 87.1782 155.427 86.8087 155.565C85.9631 155.175 85.142 154.761 84.3374 154.306C81.9154 152.908 79.7069 151.178 77.7939 149.179C75.8727 147.18 74.28 144.889 73.0156 142.411C71.7594 139.941 70.881 137.284 70.3062 134.506L70.298 134.416H63.5C63.5 134.416 66.1765 135.253 66.7266 137.041C67.1453 138.414 68.697 138.82 69.6987 138.934C69.9943 140.42 70.4376 141.891 71.0205 143.305C72.1617 146.108 73.8612 148.691 75.9548 150.909C78.0484 153.128 80.569 154.956 83.3194 156.247C83.8777 156.507 84.4524 156.743 85.0271 156.962C86.3325 157.945 86.9811 159.749 88.1634 160.7C89.7644 161.992 92.1453 162.422 93.1962 163.844C93.4425 164.177 93.6642 164.51 93.8695 164.843C95.4869 167.988 95.9713 173.797 96.0041 173.984C96.0369 173.805 96.5213 167.988 98.1388 164.843C98.344 164.51 98.5657 164.177 98.812 163.844C99.8711 162.422 102.244 161.992 103.845 160.7C105.027 159.749 105.676 157.945 106.981 156.962C107.564 156.743 108.139 156.507 108.697 156.239C111.456 154.939 113.968 153.119 116.062 150.901C118.155 148.683 119.855 146.1 120.996 143.297C121.579 141.883 122.022 140.412 122.318 138.925C123.319 138.812 124.863 138.406 125.29 137.032C125.84 135.245 128.516 134.408 128.516 134.408H121.694ZM95.9713 162.252L94.8136 157.986L95.9713 154.184L97.1289 157.986L95.9713 162.252ZM96.0041 143.995L92.0468 135.708L87.4655 133.206L92.0468 130.606L96.0041 124.496L99.9614 130.606L104.543 133.206L99.9614 135.708L96.0041 143.995Z" fill="#ACFF6C"/>
</g>
<path d="M3.14453 186.094H5.70117L12.2227 202.322L18.7305 186.094H21.3008L13.207 206H11.2109L3.14453 186.094ZM2.31055 186.094H4.56641L4.93555 198.234V206H2.31055V186.094ZM19.8652 186.094H22.1211V206H19.4961V198.234L19.8652 186.094ZM30.5293 204.469L34.6445 191.207H37.3516L31.418 208.283C31.2812 208.648 31.099 209.04 30.8711 209.459C30.6523 209.887 30.3698 210.293 30.0234 210.676C29.6771 211.059 29.2578 211.368 28.7656 211.605C28.2826 211.852 27.7038 211.975 27.0293 211.975C26.8288 211.975 26.5736 211.947 26.2637 211.893C25.9538 211.838 25.735 211.792 25.6074 211.756L25.5938 209.705C25.6667 209.714 25.7806 209.723 25.9355 209.732C26.0996 209.751 26.2135 209.76 26.2773 209.76C26.8516 209.76 27.3392 209.682 27.7402 209.527C28.1413 209.382 28.4785 209.131 28.752 208.775C29.0345 208.429 29.276 207.951 29.4766 207.34L30.5293 204.469ZM27.5078 191.207L31.3496 202.691L32.0059 205.357L30.1875 206.287L24.7461 191.207H27.5078ZM48.248 202.076C48.248 201.712 48.166 201.374 48.002 201.064C47.847 200.745 47.5234 200.458 47.0312 200.203C46.5482 199.939 45.819 199.711 44.8438 199.52C44.0234 199.346 43.2806 199.141 42.6152 198.904C41.959 198.667 41.3984 198.38 40.9336 198.043C40.4779 197.706 40.127 197.309 39.8809 196.854C39.6348 196.398 39.5117 195.865 39.5117 195.254C39.5117 194.671 39.6393 194.119 39.8945 193.6C40.1589 193.08 40.528 192.62 41.002 192.219C41.485 191.818 42.0638 191.503 42.7383 191.275C43.4128 191.048 44.1647 190.934 44.9941 190.934C46.179 190.934 47.1908 191.143 48.0293 191.562C48.8678 191.982 49.5104 192.542 49.957 193.244C50.4036 193.937 50.627 194.707 50.627 195.555H48.0977C48.0977 195.145 47.9746 194.748 47.7285 194.365C47.4915 193.973 47.1406 193.65 46.6758 193.395C46.2201 193.139 45.6595 193.012 44.9941 193.012C44.2923 193.012 43.7227 193.121 43.2852 193.34C42.8568 193.549 42.5423 193.818 42.3418 194.146C42.1504 194.475 42.0547 194.821 42.0547 195.186C42.0547 195.459 42.1003 195.705 42.1914 195.924C42.2917 196.133 42.4648 196.329 42.7109 196.512C42.957 196.685 43.3034 196.849 43.75 197.004C44.1966 197.159 44.7663 197.314 45.459 197.469C46.6712 197.742 47.6693 198.07 48.4531 198.453C49.237 198.836 49.8203 199.305 50.2031 199.861C50.5859 200.417 50.7773 201.092 50.7773 201.885C50.7773 202.532 50.6406 203.124 50.3672 203.662C50.1029 204.2 49.7155 204.665 49.2051 205.057C48.7038 205.439 48.1022 205.74 47.4004 205.959C46.7077 206.169 45.9284 206.273 45.0625 206.273C43.7591 206.273 42.6562 206.041 41.7539 205.576C40.8516 205.111 40.168 204.51 39.7031 203.771C39.2383 203.033 39.0059 202.254 39.0059 201.434H41.5488C41.5853 202.126 41.7858 202.678 42.1504 203.088C42.515 203.489 42.9616 203.776 43.4902 203.949C44.0189 204.113 44.543 204.195 45.0625 204.195C45.7552 204.195 46.334 204.104 46.7988 203.922C47.2728 203.74 47.6328 203.489 47.8789 203.17C48.125 202.851 48.248 202.486 48.248 202.076ZM60.293 191.207V193.148H52.2949V191.207H60.293ZM55.002 187.611H57.5312V202.336C57.5312 202.837 57.6087 203.215 57.7637 203.471C57.9186 203.726 58.1191 203.895 58.3652 203.977C58.6113 204.059 58.8757 204.1 59.1582 204.1C59.3678 204.1 59.5866 204.081 59.8145 204.045C60.0514 203.999 60.2292 203.963 60.3477 203.936L60.3613 206C60.1608 206.064 59.8965 206.123 59.5684 206.178C59.2493 206.242 58.862 206.273 58.4062 206.273C57.7865 206.273 57.2168 206.15 56.6973 205.904C56.1777 205.658 55.763 205.248 55.4531 204.674C55.1523 204.09 55.002 203.307 55.002 202.322V187.611ZM66.0078 191.207V206H63.4648V191.207H66.0078ZM63.2734 187.283C63.2734 186.873 63.3965 186.527 63.6426 186.244C63.8978 185.962 64.2715 185.82 64.7637 185.82C65.2467 185.82 65.6159 185.962 65.8711 186.244C66.1354 186.527 66.2676 186.873 66.2676 187.283C66.2676 187.675 66.1354 188.012 65.8711 188.295C65.6159 188.568 65.2467 188.705 64.7637 188.705C64.2715 188.705 63.8978 188.568 63.6426 188.295C63.3965 188.012 63.2734 187.675 63.2734 187.283ZM75.9883 204.195C76.5898 204.195 77.1458 204.072 77.6562 203.826C78.1667 203.58 78.5859 203.243 78.9141 202.814C79.2422 202.377 79.429 201.88 79.4746 201.324H81.8809C81.8353 202.199 81.5391 203.015 80.9922 203.771C80.4544 204.519 79.748 205.125 78.873 205.59C77.998 206.046 77.0365 206.273 75.9883 206.273C74.8763 206.273 73.9056 206.077 73.0762 205.686C72.2559 205.294 71.5723 204.756 71.0254 204.072C70.4876 203.389 70.082 202.605 69.8086 201.721C69.5443 200.827 69.4121 199.884 69.4121 198.891V198.316C69.4121 197.323 69.5443 196.384 69.8086 195.5C70.082 194.607 70.4876 193.818 71.0254 193.135C71.5723 192.451 72.2559 191.913 73.0762 191.521C73.9056 191.13 74.8763 190.934 75.9883 190.934C77.1458 190.934 78.1576 191.171 79.0234 191.645C79.8893 192.109 80.5684 192.747 81.0605 193.559C81.5618 194.361 81.8353 195.272 81.8809 196.293H79.4746C79.429 195.682 79.2559 195.131 78.9551 194.639C78.6634 194.146 78.2624 193.755 77.752 193.463C77.2507 193.162 76.6628 193.012 75.9883 193.012C75.2135 193.012 74.5618 193.167 74.0332 193.477C73.5137 193.777 73.099 194.188 72.7891 194.707C72.4883 195.217 72.2695 195.787 72.1328 196.416C72.0052 197.036 71.9414 197.669 71.9414 198.316V198.891C71.9414 199.538 72.0052 200.176 72.1328 200.805C72.2604 201.434 72.4746 202.003 72.7754 202.514C73.0853 203.024 73.5 203.434 74.0195 203.744C74.5482 204.045 75.2044 204.195 75.9883 204.195ZM92.8867 186.094H95.4434L101.965 202.322L108.473 186.094H111.043L102.949 206H100.953L92.8867 186.094ZM92.0527 186.094H94.3086L94.6777 198.234V206H92.0527V186.094ZM109.607 186.094H111.863V206H109.238V198.234L109.607 186.094ZM124.838 203.471V195.855C124.838 195.272 124.719 194.766 124.482 194.338C124.255 193.9 123.908 193.563 123.443 193.326C122.979 193.089 122.404 192.971 121.721 192.971C121.083 192.971 120.522 193.08 120.039 193.299C119.565 193.518 119.191 193.805 118.918 194.16C118.654 194.516 118.521 194.898 118.521 195.309H115.992C115.992 194.78 116.129 194.256 116.402 193.736C116.676 193.217 117.068 192.747 117.578 192.328C118.098 191.9 118.717 191.562 119.438 191.316C120.167 191.061 120.978 190.934 121.871 190.934C122.947 190.934 123.895 191.116 124.715 191.48C125.544 191.845 126.191 192.396 126.656 193.135C127.13 193.864 127.367 194.78 127.367 195.883V202.773C127.367 203.266 127.408 203.79 127.49 204.346C127.581 204.902 127.714 205.38 127.887 205.781V206H125.248C125.12 205.708 125.02 205.321 124.947 204.838C124.874 204.346 124.838 203.89 124.838 203.471ZM125.275 197.031L125.303 198.809H122.746C122.026 198.809 121.383 198.868 120.818 198.986C120.253 199.096 119.779 199.264 119.396 199.492C119.014 199.72 118.722 200.007 118.521 200.354C118.321 200.691 118.221 201.087 118.221 201.543C118.221 202.008 118.326 202.432 118.535 202.814C118.745 203.197 119.059 203.503 119.479 203.73C119.907 203.949 120.431 204.059 121.051 204.059C121.826 204.059 122.509 203.895 123.102 203.566C123.694 203.238 124.163 202.837 124.51 202.363C124.865 201.889 125.057 201.429 125.084 200.982L126.164 202.199C126.1 202.582 125.927 203.006 125.645 203.471C125.362 203.936 124.984 204.382 124.51 204.811C124.045 205.23 123.489 205.581 122.842 205.863C122.204 206.137 121.484 206.273 120.682 206.273C119.679 206.273 118.799 206.077 118.043 205.686C117.296 205.294 116.712 204.77 116.293 204.113C115.883 203.448 115.678 202.705 115.678 201.885C115.678 201.092 115.833 200.395 116.143 199.793C116.452 199.182 116.899 198.676 117.482 198.275C118.066 197.865 118.768 197.555 119.588 197.346C120.408 197.136 121.324 197.031 122.336 197.031H125.275ZM133.875 193.531V206H131.346V191.207H133.807L133.875 193.531ZM138.496 191.125L138.482 193.477C138.273 193.431 138.072 193.404 137.881 193.395C137.699 193.376 137.489 193.367 137.252 193.367C136.669 193.367 136.154 193.458 135.707 193.641C135.26 193.823 134.882 194.078 134.572 194.406C134.262 194.734 134.016 195.126 133.834 195.582C133.661 196.029 133.547 196.521 133.492 197.059L132.781 197.469C132.781 196.576 132.868 195.737 133.041 194.953C133.223 194.169 133.501 193.477 133.875 192.875C134.249 192.264 134.723 191.79 135.297 191.453C135.88 191.107 136.573 190.934 137.375 190.934C137.557 190.934 137.767 190.956 138.004 191.002C138.241 191.038 138.405 191.079 138.496 191.125ZM143.377 185V206H140.834V185H143.377ZM152.414 191.207L145.961 198.111L142.352 201.857L142.146 199.164L144.73 196.074L149.324 191.207H152.414ZM150.104 206L144.826 198.945L146.139 196.689L153.084 206H150.104ZM160.891 206.273C159.861 206.273 158.926 206.1 158.088 205.754C157.258 205.398 156.543 204.902 155.941 204.264C155.349 203.626 154.893 202.869 154.574 201.994C154.255 201.119 154.096 200.162 154.096 199.123V198.549C154.096 197.346 154.273 196.275 154.629 195.336C154.984 194.388 155.467 193.586 156.078 192.93C156.689 192.273 157.382 191.777 158.156 191.439C158.931 191.102 159.733 190.934 160.562 190.934C161.62 190.934 162.531 191.116 163.297 191.48C164.072 191.845 164.705 192.355 165.197 193.012C165.689 193.659 166.054 194.424 166.291 195.309C166.528 196.184 166.646 197.141 166.646 198.18V199.314H155.6V197.25H164.117V197.059C164.081 196.402 163.944 195.764 163.707 195.145C163.479 194.525 163.115 194.014 162.613 193.613C162.112 193.212 161.428 193.012 160.562 193.012C159.988 193.012 159.46 193.135 158.977 193.381C158.493 193.618 158.079 193.973 157.732 194.447C157.386 194.921 157.117 195.5 156.926 196.184C156.734 196.867 156.639 197.656 156.639 198.549V199.123C156.639 199.825 156.734 200.486 156.926 201.105C157.126 201.716 157.413 202.254 157.787 202.719C158.17 203.184 158.63 203.548 159.168 203.812C159.715 204.077 160.335 204.209 161.027 204.209C161.921 204.209 162.677 204.027 163.297 203.662C163.917 203.298 164.459 202.81 164.924 202.199L166.455 203.416C166.136 203.899 165.73 204.359 165.238 204.797C164.746 205.234 164.14 205.59 163.42 205.863C162.709 206.137 161.866 206.273 160.891 206.273ZM172.129 193.531V206H169.6V191.207H172.061L172.129 193.531ZM176.75 191.125L176.736 193.477C176.527 193.431 176.326 193.404 176.135 193.395C175.952 193.376 175.743 193.367 175.506 193.367C174.923 193.367 174.408 193.458 173.961 193.641C173.514 193.823 173.136 194.078 172.826 194.406C172.516 194.734 172.27 195.126 172.088 195.582C171.915 196.029 171.801 196.521 171.746 197.059L171.035 197.469C171.035 196.576 171.122 195.737 171.295 194.953C171.477 194.169 171.755 193.477 172.129 192.875C172.503 192.264 172.977 191.79 173.551 191.453C174.134 191.107 174.827 190.934 175.629 190.934C175.811 190.934 176.021 190.956 176.258 191.002C176.495 191.038 176.659 191.079 176.75 191.125ZM187.701 202.076C187.701 201.712 187.619 201.374 187.455 201.064C187.3 200.745 186.977 200.458 186.484 200.203C186.001 199.939 185.272 199.711 184.297 199.52C183.477 199.346 182.734 199.141 182.068 198.904C181.412 198.667 180.852 198.38 180.387 198.043C179.931 197.706 179.58 197.309 179.334 196.854C179.088 196.398 178.965 195.865 178.965 195.254C178.965 194.671 179.092 194.119 179.348 193.6C179.612 193.08 179.981 192.62 180.455 192.219C180.938 191.818 181.517 191.503 182.191 191.275C182.866 191.048 183.618 190.934 184.447 190.934C185.632 190.934 186.644 191.143 187.482 191.562C188.321 191.982 188.964 192.542 189.41 193.244C189.857 193.937 190.08 194.707 190.08 195.555H187.551C187.551 195.145 187.428 194.748 187.182 194.365C186.945 193.973 186.594 193.65 186.129 193.395C185.673 193.139 185.113 193.012 184.447 193.012C183.745 193.012 183.176 193.121 182.738 193.34C182.31 193.549 181.995 193.818 181.795 194.146C181.604 194.475 181.508 194.821 181.508 195.186C181.508 195.459 181.553 195.705 181.645 195.924C181.745 196.133 181.918 196.329 182.164 196.512C182.41 196.685 182.757 196.849 183.203 197.004C183.65 197.159 184.219 197.314 184.912 197.469C186.124 197.742 187.122 198.07 187.906 198.453C188.69 198.836 189.273 199.305 189.656 199.861C190.039 200.417 190.23 201.092 190.23 201.885C190.23 202.532 190.094 203.124 189.82 203.662C189.556 204.2 189.169 204.665 188.658 205.057C188.157 205.439 187.555 205.74 186.854 205.959C186.161 206.169 185.382 206.273 184.516 206.273C183.212 206.273 182.109 206.041 181.207 205.576C180.305 205.111 179.621 204.51 179.156 203.771C178.691 203.033 178.459 202.254 178.459 201.434H181.002C181.038 202.126 181.239 202.678 181.604 203.088C181.968 203.489 182.415 203.776 182.943 203.949C183.472 204.113 183.996 204.195 184.516 204.195C185.208 204.195 185.787 204.104 186.252 203.922C186.726 203.74 187.086 203.489 187.332 203.17C187.578 202.851 187.701 202.486 187.701 202.076Z" fill="#ACFF6C"/>
</g>
<defs>
<clipPath id="clip0_2510_7139">
<rect width="65" height="74" fill="white" transform="translate(63.5 100)"/>
</clipPath>
</defs>
</svg>
