<svg width="211" height="211" viewBox="0 0 211 211" fill="none" xmlns="http://www.w3.org/2000/svg">
<g opacity="0.49">
<path d="M105.155 144.667L105.856 133.303L107.94 125.315C108.064 125.027 108.146 124.739 108.167 124.409L108.208 124.265H108.187C108.187 124.183 108.208 124.121 108.208 124.039C108.208 123.812 108.187 123.606 108.146 123.401C108.105 123.195 108.043 122.989 107.961 122.804C107.878 122.618 107.775 122.433 107.672 122.268C107.445 121.939 107.156 121.63 106.805 121.404C106.475 121.177 106.083 121.012 105.67 120.93C105.464 120.889 105.237 120.868 105.031 120.868C104.804 120.868 104.598 120.889 104.391 120.93C103.979 121.012 103.587 121.177 103.257 121.404C102.927 121.63 102.617 121.918 102.39 122.268C102.266 122.433 102.184 122.618 102.101 122.804C102.019 122.989 101.957 123.195 101.916 123.401C101.874 123.606 101.854 123.833 101.854 124.039C101.854 124.121 101.874 124.203 101.874 124.265H101.833L101.874 124.409C101.916 124.718 101.977 125.027 102.101 125.315L104.185 133.303L104.783 144.667L75.817 106.416L74.0221 107.775L102.865 148.97L103.628 171.06H106.269L106.95 149.011L137.298 107.775L135.338 106.498L105.155 144.667ZM103.422 123.751C103.422 122.865 104.144 122.165 105.01 122.165C105.877 122.165 106.599 122.886 106.599 123.751C106.599 124.636 105.877 125.336 105.01 125.336C104.144 125.336 103.422 124.636 103.422 123.751Z" fill="#B595FF"/>
<path d="M121.949 113.585C117.967 113.297 115.016 113.564 112.768 113.852C110.601 114.12 109.343 116.838 108.456 119.637C110.952 119.637 113.737 120.111 115.986 119.02C119.493 117.311 121.949 113.585 121.949 113.585Z" fill="#B595FF"/>
<path d="M108.889 121.449C108.889 121.449 109.879 124.784 111.592 124.867C113.325 124.928 115.862 124.475 115.862 124.475C115.862 124.475 114.893 121.82 112.788 121.511C110.622 121.202 108.889 121.449 108.889 121.449Z" fill="#B595FF"/>
<path d="M97.2116 113.873C94.9628 113.584 92.0125 113.337 88.0307 113.605C88.0307 113.605 90.4858 117.311 93.9931 119.019C96.242 120.111 99.0272 119.658 101.524 119.637C100.657 116.858 99.3779 114.14 97.2116 113.873Z" fill="#B595FF"/>
<path d="M94.1376 124.455C94.1376 124.455 96.6752 124.908 98.4083 124.846C100.141 124.784 101.111 121.429 101.111 121.429C101.111 121.429 99.3986 121.181 97.191 121.49C95.1072 121.799 94.1376 124.455 94.1376 124.455Z" fill="#B595FF"/>
<path d="M104.618 118.813L104.907 119.101L105.196 118.813C105.196 118.813 108.022 116.899 108.27 111.937C108.435 108.664 104.928 101.685 104.928 101.685L104.886 101.932V101.685C104.886 101.685 101.379 108.664 101.544 111.937C101.792 116.878 104.618 118.813 104.618 118.813Z" fill="#B595FF"/>
<path d="M104.969 30L55 113.729L56.9187 115.026L104.866 38.5437C104.639 54.8695 99.316 69.2806 92.6108 69.3424C101.647 69.3424 103.896 89.4562 103.917 89.6414L104.948 96.0029L105.98 89.6414C106.001 89.4562 108.187 69.2806 117.41 69.2806C107.362 69.2806 105.34 44.7199 104.99 38.3996L105.01 38.3584L153.102 114.943L155.062 113.811L104.969 30ZM113.345 69.2806C108.6 71.854 106.124 78.7508 104.928 83.7741C103.731 78.7713 101.276 71.8746 96.5927 69.3218C100.698 67.016 103.545 60.9633 104.969 51.7608C104.907 62.7338 102.266 68.3336 98.6558 68.3542C103.834 68.313 104.969 78.7096 104.969 78.7096C104.969 78.7096 106.104 68.3336 111.344 68.3336C105.217 68.3336 104.969 54.1283 104.969 51.7608C105.939 57.7929 107.754 64.1338 111.158 67.5924C111.86 68.2924 112.582 68.8483 113.345 69.2806Z" fill="#B595FF"/>
<path d="M105.5 191C55.6073 191 15 150.393 15 100.5C15 50.6073 55.6073 10 105.5 10C155.393 10 196 50.6073 196 100.5C196 150.393 155.393 191 105.5 191ZM105.5 11.2837C56.3134 11.2837 16.2837 51.3134 16.2837 100.5C16.2837 149.687 56.3134 189.716 105.5 189.716C154.687 189.716 194.716 149.687 194.716 100.5C194.716 51.3134 154.687 11.2837 105.5 11.2837Z" fill="#B595FF"/>
</g>
</svg>
